<?xml version="1.0" standalone="no"?>
<!DOCTYPE svg PUBLIC "-//W3C//DTD SVG 20010904//EN"
 "http://www.w3.org/TR/2001/REC-SVG-20010904/DTD/svg10.dtd">
<svg version="1.0" xmlns="http://www.w3.org/2000/svg"
 width="512.000000pt" height="512.000000pt" viewBox="0 0 512.000000 512.000000"
 preserveAspectRatio="xMidYMid meet">
<metadata>
Created by potrace 1.14, written by Peter Selinger 2001-2017
</metadata>
<g transform="translate(0.000000,512.000000) scale(0.100000,-0.100000)"
fill="#000000" stroke="none">
<path d="M2398 4615 c-2 -1 -37 -6 -78 -9 -41 -4 -86 -9 -100 -11 -14 -2 -45
-7 -70 -10 -127 -18 -415 -101 -555 -160 -211 -89 -472 -244 -624 -370 -321
-266 -548 -550 -708 -885 -52 -109 -123 -289 -123 -313 0 -7 -3 -17 -7 -21 -4
-3 -8 -12 -9 -19 -2 -7 -14 -62 -28 -122 -43 -187 -54 -294 -51 -495 3 -180 9
-236 41 -370 129 -537 531 -928 1174 -1144 183 -61 442 -122 605 -141 28 -4
59 -8 71 -10 11 -2 52 -6 90 -10 38 -4 80 -9 94 -10 184 -21 770 -22 900 -1
14 3 61 7 105 11 44 4 87 9 96 10 9 2 40 6 70 10 30 4 56 8 59 10 3 2 30 6 60
10 30 4 58 9 61 11 3 2 20 6 38 9 144 25 347 86 544 164 33 13 185 89 242 121
94 52 269 185 345 260 53 53 145 166 187 230 100 153 191 378 209 517 2 19 6
38 8 42 20 31 28 407 13 547 -50 463 -278 955 -612 1323 -227 250 -470 431
-777 580 -281 136 -535 207 -858 241 -70 7 -405 11 -412 5z"/>
</g>
</svg>
