<svg width="172" height="141" viewBox="0 0 172 141" fill="none" xmlns="http://www.w3.org/2000/svg">
<path d="M172 81.6784C172 123 135.728 141 86.7505 141C37.7734 141 0 123 0 81.6784C0 40.357 37.7734 0 86.7505 0C135.728 0 172 40.357 172 81.6784Z" fill="#F26444"/>
<ellipse cx="60.5742" cy="65.0066" rx="10.4638" ry="10.8562" fill="#352B29"/>
<ellipse cx="60.4439" cy="61.0828" rx="3.00835" ry="2.48516" fill="white"/>
<ellipse cx="114.235" cy="64.7449" rx="10.4638" ry="10.8562" fill="#352B29"/>
<ellipse cx="113.842" cy="60.8211" rx="3.00835" ry="2.48516" fill="white"/>
<path fill-rule="evenodd" clip-rule="evenodd" d="M74.3246 83.3267C72.5187 83.3267 71.0547 84.7907 71.0547 86.5966C71.0547 88.4025 72.5187 89.8665 74.3246 89.8665H99.1762C100.982 89.8665 102.446 88.4025 102.446 86.5966C102.446 84.7907 100.982 83.3267 99.1762 83.3267H74.3246Z" fill="#352B29"/>
<ellipse cx="60.5742" cy="65.0066" rx="10.4638" ry="10.8562" fill="#352B29"/>
<ellipse cx="60.4439" cy="61.0828" rx="3.00835" ry="2.48516" fill="white"/>
<ellipse cx="114.235" cy="64.7449" rx="10.4638" ry="10.8562" fill="#352B29"/>
<ellipse cx="113.842" cy="60.8211" rx="3.00835" ry="2.48516" fill="white"/>
<path fill-rule="evenodd" clip-rule="evenodd" d="M74.3246 83.3267C72.5187 83.3267 71.0547 84.7907 71.0547 86.5966C71.0547 88.4025 72.5187 89.8665 74.3246 89.8665H99.1762C100.982 89.8665 102.446 88.4025 102.446 86.5966C102.446 84.7907 100.982 83.3267 99.1762 83.3267H74.3246Z" fill="#352B29"/>
</svg>
