<svg width="32" height="32" viewBox="0 0 32 32" fill="none" xmlns="http://www.w3.org/2000/svg">
<path d="M20.5998 5.04048C20.5465 5.37382 20.5198 5.70715 20.5198 6.04048C20.5198 9.04048 22.9465 11.4658 25.9332 11.4658C26.2665 11.4658 26.5865 11.4271 26.9198 11.3738V22.1325C26.9198 26.6538 24.2532 29.3338 19.7198 29.3338H9.86784C5.33317 29.3338 2.6665 26.6538 2.6665 22.1325V12.2671C2.6665 7.73382 5.33317 5.04048 9.86784 5.04048H20.5998ZM20.8678 13.1471C20.5065 13.1071 20.1478 13.2671 19.9332 13.5605L16.7078 17.7338L13.0132 14.8272C12.7865 14.6538 12.5198 14.5858 12.2532 14.6138C11.9878 14.6538 11.7478 14.7991 11.5865 15.0125L7.64117 20.1472L7.55984 20.2672C7.33317 20.6925 7.43984 21.2392 7.83984 21.5338C8.0265 21.6538 8.2265 21.7338 8.45317 21.7338C8.76117 21.7472 9.05317 21.5858 9.23984 21.3338L12.5865 17.0258L16.3865 19.8805L16.5065 19.9592C16.9332 20.1858 17.4665 20.0805 17.7732 19.6791L21.6265 14.7071L21.5732 14.7338C21.7865 14.4405 21.8265 14.0671 21.6798 13.7338C21.5345 13.4005 21.2132 13.1738 20.8678 13.1471ZM26.12 2.66675C27.8933 2.66675 29.3333 4.10675 29.3333 5.88008C29.3333 7.65342 27.8933 9.09342 26.12 9.09342C24.3466 9.09342 22.9066 7.65342 22.9066 5.88008C22.9066 4.10675 24.3466 2.66675 26.12 2.66675Z" fill="#352B29"/>
</svg>
