<svg width="32" height="32" viewBox="0 0 32 32" fill="none" xmlns="http://www.w3.org/2000/svg">
<path d="M20.5998 5.04036C20.5465 5.37369 20.5198 5.70703 20.5198 6.04036C20.5198 9.04036 22.9465 11.4657 25.9332 11.4657C26.2665 11.4657 26.5865 11.427 26.9198 11.3737V22.1324C26.9198 26.6537 24.2532 29.3337 19.7198 29.3337H9.86784C5.33317 29.3337 2.6665 26.6537 2.6665 22.1324V12.267C2.6665 7.73369 5.33317 5.04036 9.86784 5.04036H20.5998ZM20.8678 13.147C20.5065 13.107 20.1478 13.267 19.9332 13.5604L16.7078 17.7337L13.0132 14.827C12.7865 14.6537 12.5198 14.5857 12.2532 14.6137C11.9878 14.6537 11.7478 14.799 11.5865 15.0124L7.64117 20.147L7.55984 20.267C7.33317 20.6924 7.43984 21.239 7.83984 21.5337C8.0265 21.6537 8.2265 21.7337 8.45317 21.7337C8.76117 21.747 9.05317 21.5857 9.23984 21.3337L12.5865 17.0257L16.3865 19.8804L16.5065 19.959C16.9332 20.1857 17.4665 20.0804 17.7732 19.679L21.6265 14.707L21.5732 14.7337C21.7865 14.4404 21.8265 14.067 21.6798 13.7337C21.5345 13.4004 21.2132 13.1737 20.8678 13.147ZM26.12 2.66663C27.8933 2.66663 29.3333 4.10663 29.3333 5.87996C29.3333 7.65329 27.8933 9.09329 26.12 9.09329C24.3466 9.09329 22.9066 7.65329 22.9066 5.87996C22.9066 4.10663 24.3466 2.66663 26.12 2.66663Z" fill="#767676"/>
</svg>
