<svg width="30" height="32" viewBox="0 0 30 32" fill="none" xmlns="http://www.w3.org/2000/svg">
<path d="M11.4297 27.7096V23.6204C11.4296 22.5842 12.2196 21.7424 13.198 21.7358H16.7908C17.7736 21.7358 18.5703 22.5796 18.5703 23.6204V27.6977C18.5703 28.5965 19.255 29.3269 20.1037 29.3334H22.5548C23.6996 29.3365 24.7984 28.8571 25.609 28.001C26.4195 27.1449 26.875 25.9824 26.875 24.7701V13.1545C26.875 12.1753 26.4651 11.2464 25.7558 10.6181L17.4287 3.56577C15.9731 2.33224 13.8942 2.37209 12.4817 3.66059L4.33377 10.6181C3.59093 11.2278 3.14694 12.1595 3.125 13.1545V24.7583C3.125 27.285 5.05923 29.3334 7.44522 29.3334H9.84036C10.249 29.3365 10.6419 29.1668 10.9318 28.862C11.2218 28.5571 11.3849 28.1423 11.3849 27.7096H11.4297Z" fill="#767676"/>
</svg>
