<svg width="30" height="32" viewBox="0 0 30 32" fill="none" xmlns="http://www.w3.org/2000/svg">
<path d="M11.4297 27.7094V23.6203C11.4296 22.5841 12.2196 21.7422 13.198 21.7357H16.7908C17.7736 21.7357 18.5703 22.5795 18.5703 23.6203V27.6976C18.5703 28.5963 19.255 29.3267 20.1037 29.3333H22.5548C23.6996 29.3364 24.7984 28.857 25.609 28.0009C26.4195 27.1448 26.875 25.9823 26.875 24.77V13.1544C26.875 12.1751 26.4651 11.2462 25.7558 10.618L17.4287 3.56565C15.9731 2.33212 13.8942 2.37197 12.4817 3.66047L4.33377 10.618C3.59093 11.2277 3.14694 12.1594 3.125 13.1544V24.7581C3.125 27.2849 5.05923 29.3333 7.44522 29.3333H9.84036C10.249 29.3364 10.6419 29.1667 10.9318 28.8619C11.2218 28.557 11.3849 28.1422 11.3849 27.7094H11.4297Z" fill="#352B29"/>
</svg>
