<svg width="311" height="92" viewBox="0 0 311 92" fill="none" xmlns="http://www.w3.org/2000/svg">
<rect x="1" y="1" width="309" height="90" rx="14" stroke="#D9D9D9" stroke-width="2" stroke-dasharray="4 4"/>
<path d="M85.058 61.668H93.094V62.62H85.058V61.668ZM83.686 70.418H95.124V71.37H83.686V70.418ZM92.618 61.668H93.752V62.872C93.752 64.412 93.752 66.148 93.234 68.738L92.072 68.598C92.618 66.148 92.618 64.37 92.618 62.872V61.668ZM92.87 64.706V65.588L84.89 66.036L84.708 65.028L92.87 64.706ZM88.138 67.142H89.3V70.768H88.138V67.142ZM105.763 60.436H106.925V73.12H105.763V60.436ZM97.3909 68.99H98.4129C100.919 68.99 102.543 68.906 104.419 68.556L104.545 69.536C102.613 69.9 100.961 69.97 98.4129 69.97H97.3909V68.99ZM97.3909 61.64H103.369V62.606H98.5389V69.354H97.3909V61.64ZM118.11 60.45H119.272V69.942H118.11V60.45ZM118.908 64.594H121.148V65.574H118.908V64.594ZM109.486 61.976H116.962V62.914H109.486V61.976ZM113.224 63.614C115.016 63.614 116.248 64.552 116.248 65.98C116.248 67.394 115.016 68.332 113.224 68.332C111.418 68.332 110.186 67.394 110.186 65.98C110.186 64.552 111.418 63.614 113.224 63.614ZM113.224 64.524C112.076 64.524 111.292 65.098 111.292 65.98C111.292 66.848 112.076 67.422 113.224 67.422C114.358 67.422 115.142 66.848 115.142 65.98C115.142 65.098 114.358 64.524 113.224 64.524ZM112.636 60.436H113.798V62.466H112.636V60.436ZM111.39 71.86H119.846V72.812H111.39V71.86ZM111.39 69.186H112.552V72.266H111.39V69.186ZM126.26 66.694H137.698V67.618H126.26V66.694ZM131.398 68.472H132.392V68.878C132.392 71.132 130.18 72.616 127.604 73.05L127.142 72.14C129.452 71.804 131.398 70.544 131.398 68.878V68.472ZM131.58 68.472H132.574V68.878C132.574 70.544 134.506 71.804 136.816 72.14L136.354 73.05C133.778 72.616 131.58 71.132 131.58 68.878V68.472ZM131.398 65.112H132.546V67.1H131.398V65.112ZM131.986 60.688C134.716 60.688 136.438 61.584 136.438 63.082C136.438 64.58 134.716 65.476 131.986 65.476C129.242 65.476 127.534 64.58 127.534 63.082C127.534 61.584 129.242 60.688 131.986 60.688ZM131.986 61.612C129.97 61.612 128.724 62.158 128.724 63.082C128.724 64.006 129.97 64.552 131.986 64.552C133.988 64.552 135.248 64.006 135.248 63.082C135.248 62.158 133.988 61.612 131.986 61.612ZM149.839 63.712H152.695V64.678H149.839V63.712ZM152.331 60.436H153.493V67.982H152.331V60.436ZM149.335 68.36C151.939 68.36 153.549 69.242 153.549 70.726C153.549 72.224 151.939 73.078 149.335 73.078C146.717 73.078 145.107 72.224 145.107 70.726C145.107 69.242 146.717 68.36 149.335 68.36ZM149.335 69.27C147.431 69.27 146.269 69.802 146.269 70.726C146.269 71.636 147.431 72.168 149.335 72.168C151.239 72.168 152.401 71.636 152.401 70.726C152.401 69.802 151.239 69.27 149.335 69.27ZM146.311 61.71H147.263V62.732C147.263 65.07 145.835 67.072 143.735 67.856L143.133 66.932C145.009 66.246 146.311 64.552 146.311 62.732V61.71ZM146.535 61.71H147.473V62.732C147.473 64.37 148.705 65.938 150.539 66.582L149.951 67.506C147.893 66.764 146.535 64.86 146.535 62.732V61.71ZM143.483 61.36H150.245V62.312H143.483V61.36ZM155.97 70.516H167.436V71.482H155.97V70.516ZM161.094 67.492H162.256V70.796H161.094V67.492ZM157.314 61.332H158.462V63.586H164.916V61.332H166.064V67.8H157.314V61.332ZM158.462 64.524V66.848H164.916V64.524H158.462ZM177.402 60.422H178.578V73.092H177.402V60.422ZM178.256 65.56H180.594V66.526H178.256V65.56ZM174.168 61.794H175.302C175.302 65.392 173.65 68.64 169.562 70.698L168.918 69.802C172.418 68.024 174.168 65.322 174.168 61.976V61.794ZM169.506 61.794H174.77V62.746H169.506V61.794ZM187.107 67.856H188.199V69.438H190.411V67.856H191.489V72.924H187.107V67.856ZM188.199 70.306V72.014H190.411V70.306H188.199ZM193.939 67.786H194.835V68.836C194.835 70.558 193.967 72.294 192.217 73.036L191.629 72.154C193.155 71.51 193.939 70.124 193.939 68.836V67.786ZM194.177 67.786H195.073V68.836C195.073 70.194 195.857 71.566 197.383 72.154L196.795 73.036C195.031 72.308 194.177 70.628 194.177 68.836V67.786ZM192.021 63.404H195.423V64.37H192.021V63.404ZM189.109 60.996C190.999 60.996 192.371 62.172 192.371 63.908C192.371 65.63 190.999 66.82 189.109 66.82C187.219 66.82 185.847 65.63 185.847 63.908C185.847 62.172 187.219 60.996 189.109 60.996ZM189.109 61.962C187.863 61.962 186.967 62.76 186.967 63.908C186.967 65.042 187.863 65.854 189.109 65.854C190.355 65.854 191.251 65.042 191.251 63.908C191.251 62.76 190.355 61.962 189.109 61.962ZM194.905 60.436H196.067V67.142H194.905V60.436ZM201.918 61.402C203.752 61.402 205.068 63.124 205.068 65.812C205.068 68.514 203.752 70.236 201.918 70.236C200.07 70.236 198.768 68.514 198.768 65.812C198.768 63.124 200.07 61.402 201.918 61.402ZM201.918 62.452C200.7 62.452 199.874 63.768 199.874 65.812C199.874 67.87 200.7 69.214 201.918 69.214C203.136 69.214 203.962 67.87 203.962 65.812C203.962 63.768 203.136 62.452 201.918 62.452ZM207.812 60.422H208.96V73.106H207.812V60.422ZM204.69 65.252H208.316V66.204H204.69V65.252ZM214.223 66.946H215.371V70.74H214.223V66.946ZM218.899 66.946H220.061V70.74H218.899V66.946ZM211.423 70.516H222.889V71.482H211.423V70.516ZM217.135 61.234C219.809 61.234 221.727 62.508 221.727 64.496C221.727 66.47 219.809 67.744 217.135 67.744C214.447 67.744 212.529 66.47 212.529 64.496C212.529 62.508 214.447 61.234 217.135 61.234ZM217.135 62.158C215.105 62.158 213.649 63.082 213.649 64.496C213.649 65.896 215.105 66.82 217.135 66.82C219.165 66.82 220.607 65.896 220.607 64.496C220.607 63.082 219.165 62.158 217.135 62.158ZM226.227 61.8182L226.127 69.1364H224.974L224.874 61.8182H226.227ZM225.55 72.0795C225.305 72.0795 225.095 71.9917 224.919 71.8161C224.743 71.6404 224.656 71.4299 224.656 71.1847C224.656 70.9394 224.743 70.7289 224.919 70.5533C225.095 70.3776 225.305 70.2898 225.55 70.2898C225.796 70.2898 226.006 70.3776 226.182 70.5533C226.357 70.7289 226.445 70.9394 226.445 71.1847C226.445 71.3471 226.404 71.4962 226.321 71.6321C226.241 71.768 226.134 71.8774 225.998 71.9602C225.865 72.0398 225.716 72.0795 225.55 72.0795Z" fill="#767676"/>
<circle cx="155" cy="35" r="18" fill="#D9D9D9"/>
<path d="M154.059 43.2773V36.457H147.273V33.6094H154.059V26.8242H156.906V33.6094H163.727V36.457H156.906V43.2773H154.059Z" fill="#767676"/>
</svg>
