<svg width="70" height="38" viewBox="0 0 70 38" fill="none" xmlns="http://www.w3.org/2000/svg">
<path d="M8.4 23.8C6.92 23.8 5.62 23.44 4.5 22.72C3.38 22 2.50667 20.9933 1.88 19.7C1.26667 18.3933 0.96 16.8933 0.96 15.2C0.96 13.5067 1.26667 12.0067 1.88 10.7C2.50667 9.39333 3.38667 8.38 4.52 7.66C5.65333 6.94 6.95333 6.58 8.42 6.58C9.20667 6.58 9.99333 6.71333 10.78 6.98C11.5667 7.23333 12.2333 7.57333 12.78 8C13.18 8.32 13.38 8.69333 13.38 9.12C13.38 9.42667 13.2667 9.73333 13.04 10.04C12.72 10.44 12.32 10.64 11.84 10.64C11.52 10.64 11.2333 10.5467 10.98 10.36C10.1267 9.77333 9.27333 9.48 8.42 9.48C7.58 9.48 6.84 9.71333 6.2 10.18C5.57333 10.6467 5.08667 11.3133 4.74 12.18C4.39333 13.0333 4.22 14.04 4.22 15.2C4.22 16.36 4.38667 17.3733 4.72 18.24C5.06667 19.0933 5.55333 19.7533 6.18 20.22C6.82 20.6733 7.56 20.9 8.4 20.9C9.14667 20.9 9.81333 20.7667 10.4 20.5V17.12C10.4 17.04 10.3867 16.9867 10.36 16.96C10.3467 16.9333 10.3067 16.92 10.24 16.92H9.12C8.65333 16.92 8.28 16.7933 8 16.54C7.73333 16.2733 7.6 15.92 7.6 15.48C7.6 15.04 7.74 14.6867 8.02 14.42C8.3 14.1533 8.66667 14.02 9.12 14.02H11.68C12.3067 14.02 12.7933 14.2067 13.14 14.58C13.5 14.94 13.6733 15.44 13.66 16.08L13.64 20.78C13.6533 21.4733 13.36 22.0667 12.76 22.56C12.32 22.9333 11.7067 23.2333 10.92 23.46C10.1467 23.6867 9.30667 23.8 8.4 23.8ZM34.1891 23.72C33.7624 23.72 33.3891 23.6067 33.0691 23.38C32.7491 23.14 32.5424 22.8333 32.4491 22.46L29.1691 8.78C29.1291 8.62 29.1091 8.46667 29.1091 8.32C29.1091 7.96 29.2157 7.65333 29.4291 7.4C29.6424 7.14667 29.9491 6.97333 30.3491 6.88C30.5091 6.84 30.6624 6.82 30.8091 6.82C31.1824 6.82 31.4957 6.93333 31.7491 7.16C32.0157 7.37333 32.1891 7.66667 32.2691 8.04L33.8291 15.34C34.0157 16.2467 34.1757 17.4 34.3091 18.8C34.4291 17.4533 34.6091 16.3067 34.8491 15.36L36.5691 8.5C36.8224 7.54 37.4424 7.06 38.4291 7.06C39.4157 7.06 40.0357 7.54 40.2891 8.5L42.0091 15.36C42.2491 16.3067 42.4291 17.4533 42.5491 18.8C42.6824 17.4 42.8424 16.2467 43.0291 15.34L44.5891 8.04C44.6691 7.66667 44.8357 7.37333 45.0891 7.16C45.3557 6.93333 45.6757 6.82 46.0491 6.82C46.1957 6.82 46.3491 6.84 46.5091 6.88C46.9091 6.97333 47.2157 7.14667 47.4291 7.4C47.6424 7.65333 47.7491 7.96 47.7491 8.32C47.7491 8.46667 47.7291 8.62 47.6891 8.78L44.4091 22.46C44.3157 22.8333 44.1091 23.14 43.7891 23.38C43.4691 23.6067 43.0957 23.72 42.6691 23.72C42.2291 23.72 41.8424 23.6067 41.5091 23.38C41.1757 23.14 40.9624 22.8333 40.8691 22.46L39.0691 15.08C38.8291 14.1067 38.6157 12.9467 38.4291 11.6C38.2424 12.9467 38.0291 14.1067 37.7891 15.08L35.9891 22.46C35.8957 22.8333 35.6824 23.14 35.3491 23.38C35.0157 23.6067 34.6291 23.72 34.1891 23.72ZM50.8264 23.72C50.3464 23.72 49.9597 23.5933 49.6664 23.34C49.3731 23.0733 49.2264 22.72 49.2264 22.28V8.2C49.2264 7.74667 49.3731 7.38 49.6664 7.1C49.9597 6.80667 50.3397 6.66 50.8064 6.66C51.6597 6.66 52.2531 7.05333 52.5864 7.84C52.6797 8.04 52.7797 8.29333 52.8864 8.6L56.1464 16.74C56.3064 17.1533 56.5397 17.88 56.8464 18.92C57.1264 18.0267 57.3797 17.3 57.6064 16.74L59.4064 12.28C60.4597 9.64 61.0464 8.17333 61.1664 7.88C61.5131 7.06667 62.0997 6.66 62.9264 6.66C63.3931 6.66 63.7731 6.80667 64.0664 7.1C64.3731 7.38 64.5264 7.74667 64.5264 8.2V22.28C64.5264 22.72 64.3731 23.0733 64.0664 23.34C63.7731 23.5933 63.3931 23.72 62.9264 23.72H62.8264C62.3597 23.72 61.9797 23.5933 61.6864 23.34C61.3931 23.0733 61.2464 22.72 61.2464 22.28V18.12L61.4864 15.06C60.3131 18.1 59.3464 20.5267 58.5864 22.34C58.3997 22.8067 58.1731 23.1533 57.9064 23.38C57.6397 23.6067 57.2931 23.72 56.8664 23.72C56.4397 23.72 56.0931 23.6067 55.8264 23.38C55.5597 23.1533 55.3331 22.8067 55.1464 22.34C54.1197 19.9267 53.1597 17.5 52.2664 15.06L52.5064 18.12L52.5264 22.28C52.5264 22.72 52.3731 23.0733 52.0664 23.34C51.7731 23.5933 51.3931 23.72 50.9264 23.72H50.8264Z" fill="#352B29"/>
<path d="M16.1061 23.62C15.7594 23.4867 15.4928 23.3 15.3061 23.06C15.1194 22.82 15.0261 22.54 15.0261 22.22C15.0261 22.02 15.0661 21.8133 15.1461 21.6L20.0261 8.08C20.3594 7.13333 20.9394 6.66 21.7661 6.66C22.5928 6.66 23.1728 7.13333 23.5061 8.08L28.3861 21.6C28.4661 21.8133 28.5061 22.0267 28.5061 22.24C28.5061 22.5467 28.4128 22.82 28.2261 23.06C28.0528 23.2867 27.7928 23.4667 27.4461 23.6C27.2328 23.68 27.0128 23.72 26.7861 23.72C26.4528 23.72 26.1528 23.6267 25.8861 23.44C25.6328 23.2533 25.4528 22.9933 25.3461 22.66L24.2461 19.5H19.2861L18.1861 22.66C18.0661 22.9933 17.8794 23.2533 17.6261 23.44C17.3728 23.6267 17.0794 23.72 16.7461 23.72C16.5061 23.72 16.2928 23.6867 16.1061 23.62ZM22.0861 13.34L21.7461 12.26L21.4461 13.34L20.3061 16.6H23.2261L22.0861 13.34Z" fill="#F26444"/>
<path d="M4.224 34.76C3.68 34.76 3.20267 34.6213 2.792 34.344C2.376 34.0667 2.05333 33.68 1.824 33.184C1.59467 32.6827 1.48 32.112 1.48 31.472C1.48 30.832 1.59733 30.256 1.832 29.744C2.06667 29.232 2.39467 28.8373 2.816 28.56C3.24267 28.2773 3.72533 28.136 4.264 28.136C4.60533 28.136 4.928 28.1867 5.232 28.288C5.536 28.3893 5.776 28.5227 5.952 28.688C6.03733 28.7733 6.08 28.8667 6.08 28.968C6.08 29.0427 6.05333 29.1173 6 29.192C5.92533 29.2827 5.83733 29.328 5.736 29.328C5.656 29.328 5.58133 29.3013 5.512 29.248C5.30933 29.1093 5.10933 29.0053 4.912 28.936C4.71467 28.8667 4.49867 28.832 4.264 28.832C3.87467 28.832 3.528 28.9413 3.224 29.16C2.92 29.3733 2.68267 29.68 2.512 30.08C2.34667 30.4747 2.264 30.9333 2.264 31.456C2.264 31.9787 2.34667 32.432 2.512 32.816C2.67733 33.2107 2.90667 33.5173 3.2 33.736C3.49867 33.9547 3.84 34.064 4.224 34.064C4.448 34.064 4.66667 34.0347 4.88 33.976C5.09867 33.9173 5.26667 33.84 5.384 33.744V31.832C5.384 31.8 5.37067 31.7733 5.344 31.752C5.32267 31.7253 5.296 31.712 5.264 31.712H4.48C4.352 31.712 4.25333 31.6827 4.184 31.624C4.11467 31.5653 4.08 31.4773 4.08 31.36C4.08 31.2427 4.11467 31.152 4.184 31.088C4.25333 31.024 4.352 30.992 4.48 30.992H5.6C5.77067 30.992 5.90667 31.0427 6.008 31.144C6.10933 31.2453 6.16 31.3813 6.16 31.552V33.712C6.16 33.824 6.13867 33.92 6.096 34C6.05867 34.08 6 34.1547 5.92 34.224C5.728 34.384 5.47733 34.5147 5.168 34.616C4.864 34.712 4.54933 34.76 4.224 34.76ZM8.81569 34.752C8.37302 34.752 7.98635 34.6587 7.65569 34.472C7.33035 34.28 7.07969 34.0133 6.90369 33.672C6.72769 33.3307 6.63969 32.936 6.63969 32.488C6.63969 32.0293 6.72235 31.6293 6.88769 31.288C7.05835 30.9413 7.29835 30.6773 7.60769 30.496C7.91702 30.3093 8.27969 30.216 8.69569 30.216C9.09035 30.216 9.44769 30.312 9.76769 30.504C10.0877 30.7013 10.333 30.9733 10.5037 31.32C10.6744 31.6667 10.7517 32.056 10.7357 32.488C10.7304 32.6 10.693 32.688 10.6237 32.752C10.5597 32.8107 10.4637 32.84 10.3357 32.84H7.45569C7.51435 33.2347 7.66369 33.5387 7.90369 33.752C8.14902 33.9653 8.45569 34.072 8.82369 34.072C9.22902 34.072 9.56769 33.968 9.83969 33.76C9.92502 33.6907 10.021 33.656 10.1277 33.656C10.2184 33.656 10.2957 33.688 10.3597 33.752C10.4237 33.816 10.4557 33.8933 10.4557 33.984C10.4557 34.096 10.4077 34.1973 10.3117 34.288C10.1624 34.4213 9.94902 34.5333 9.67169 34.624C9.39969 34.7093 9.11435 34.752 8.81569 34.752ZM9.91969 32.152C9.90902 31.7893 9.78902 31.4933 9.55969 31.264C9.33035 31.0293 9.04502 30.912 8.70369 30.912C8.35169 30.912 8.06902 31.0187 7.85569 31.232C7.64235 31.44 7.50635 31.7467 7.44769 32.152H9.91969ZM13.5132 34.752C13.0332 34.752 12.6625 34.6107 12.4012 34.328C12.1452 34.0453 12.0172 33.616 12.0172 33.04V30.984H11.3372C11.2092 30.984 11.1105 30.9547 11.0412 30.896C10.9719 30.8373 10.9372 30.7493 10.9372 30.632C10.9372 30.52 10.9719 30.4347 11.0412 30.376C11.1105 30.312 11.2092 30.28 11.3372 30.28H12.0172V28.728C12.0172 28.6 12.0492 28.5013 12.1132 28.432C12.1825 28.3627 12.2785 28.328 12.4012 28.328C12.5292 28.328 12.6252 28.3627 12.6892 28.432C12.7585 28.5013 12.7932 28.6 12.7932 28.728V30.28H14.0972C14.2252 30.28 14.3239 30.312 14.3932 30.376C14.4625 30.4347 14.4972 30.52 14.4972 30.632C14.4972 30.744 14.4625 30.832 14.3932 30.896C14.3239 30.9547 14.2252 30.984 14.0972 30.984H12.7932V33.04C12.7932 33.4027 12.8545 33.664 12.9772 33.824C13.0999 33.9787 13.2785 34.056 13.5132 34.056C13.6679 34.056 13.8065 34.0293 13.9292 33.976C14.0519 33.9173 14.1719 33.8267 14.2892 33.704C14.3585 33.6187 14.4492 33.576 14.5612 33.576C14.6519 33.576 14.7345 33.6133 14.8092 33.688C14.8732 33.7573 14.9052 33.832 14.9052 33.912C14.9052 34.0187 14.8572 34.1253 14.7612 34.232C14.4465 34.5787 14.0305 34.752 13.5132 34.752ZM17.9265 34.744C17.8252 34.744 17.7372 34.7227 17.6625 34.68C17.5878 34.632 17.5372 34.5627 17.5105 34.472L16.3665 30.792C16.3505 30.7333 16.3425 30.6827 16.3425 30.64C16.3425 30.4693 16.4278 30.352 16.5985 30.288C16.6625 30.2667 16.7158 30.256 16.7585 30.256C16.8438 30.256 16.9158 30.2827 16.9745 30.336C17.0385 30.384 17.0812 30.448 17.1025 30.528L17.9425 33.616L18.8305 30.648C18.8518 30.5627 18.8972 30.496 18.9665 30.448C19.0412 30.3947 19.1238 30.3707 19.2145 30.376C19.3052 30.3707 19.3852 30.3947 19.4545 30.448C19.5238 30.496 19.5718 30.5627 19.5985 30.648L20.5185 33.616L21.3265 30.528C21.3478 30.448 21.3905 30.384 21.4545 30.336C21.5185 30.2827 21.5932 30.256 21.6785 30.256C21.7212 30.256 21.7745 30.2667 21.8385 30.288C22.0038 30.3413 22.0865 30.456 22.0865 30.632C22.0865 30.68 22.0785 30.7333 22.0625 30.792L20.9345 34.472C20.9078 34.5627 20.8572 34.632 20.7825 34.68C20.7078 34.7227 20.6198 34.744 20.5185 34.744C20.4172 34.744 20.3292 34.7227 20.2545 34.68C20.1852 34.632 20.1345 34.5627 20.1025 34.472C19.7612 33.4533 19.4652 32.504 19.2145 31.624C18.9745 32.4987 18.6838 33.448 18.3425 34.472C18.3158 34.5627 18.2652 34.632 18.1905 34.68C18.1158 34.7227 18.0278 34.744 17.9265 34.744ZM24.4191 34.752C23.9765 34.752 23.5898 34.6587 23.2591 34.472C22.9338 34.28 22.6831 34.0133 22.5071 33.672C22.3311 33.3307 22.2431 32.936 22.2431 32.488C22.2431 32.0293 22.3258 31.6293 22.4911 31.288C22.6618 30.9413 22.9018 30.6773 23.2111 30.496C23.5205 30.3093 23.8831 30.216 24.2991 30.216C24.6938 30.216 25.0511 30.312 25.3711 30.504C25.6911 30.7013 25.9365 30.9733 26.1071 31.32C26.2778 31.6667 26.3551 32.056 26.3391 32.488C26.3338 32.6 26.2965 32.688 26.2271 32.752C26.1631 32.8107 26.0671 32.84 25.9391 32.84H23.0591C23.1178 33.2347 23.2671 33.5387 23.5071 33.752C23.7525 33.9653 24.0591 34.072 24.4271 34.072C24.8325 34.072 25.1711 33.968 25.4431 33.76C25.5285 33.6907 25.6245 33.656 25.7311 33.656C25.8218 33.656 25.8991 33.688 25.9631 33.752C26.0271 33.816 26.0591 33.8933 26.0591 33.984C26.0591 34.096 26.0111 34.1973 25.9151 34.288C25.7658 34.4213 25.5525 34.5333 25.2751 34.624C25.0031 34.7093 24.7178 34.752 24.4191 34.752ZM25.5231 32.152C25.5125 31.7893 25.3925 31.4933 25.1631 31.264C24.9338 31.0293 24.6485 30.912 24.3071 30.912C23.9551 30.912 23.6725 31.0187 23.4591 31.232C23.2458 31.44 23.1098 31.7467 23.0511 32.152H25.5231ZM32.076 34.744C31.9533 34.744 31.8573 34.7093 31.788 34.64C31.7187 34.5707 31.684 34.472 31.684 34.344V30.648C31.684 30.52 31.716 30.4213 31.78 30.352C31.8493 30.2827 31.948 30.248 32.076 30.248C32.1987 30.248 32.292 30.2827 32.356 30.352C32.4253 30.4213 32.46 30.52 32.46 30.648V30.832C32.6093 30.6347 32.788 30.4827 32.996 30.376C33.204 30.2693 33.428 30.216 33.668 30.216C34.0467 30.216 34.3347 30.2773 34.532 30.4C34.644 30.4693 34.7 30.5653 34.7 30.688C34.7 30.768 34.6813 30.8347 34.644 30.888C34.5853 30.9947 34.4973 31.048 34.38 31.048C34.316 31.048 34.252 31.032 34.188 31C34.0547 30.9413 33.884 30.912 33.676 30.912C33.4573 30.912 33.2547 30.9733 33.068 31.096C32.8867 31.2187 32.74 31.392 32.628 31.616C32.516 31.84 32.46 32.1013 32.46 32.4V34.344C32.46 34.472 32.4253 34.5707 32.356 34.64C32.292 34.7093 32.1987 34.744 32.076 34.744ZM37.9936 34.744C37.887 34.744 37.7936 34.72 37.7136 34.672C37.639 34.6187 37.591 34.5467 37.5696 34.456L36.1616 28.704C36.1456 28.6453 36.1376 28.592 36.1376 28.544C36.1376 28.3787 36.223 28.264 36.3936 28.2C36.4416 28.1787 36.5003 28.168 36.5696 28.168C36.6496 28.168 36.719 28.192 36.7776 28.24C36.8363 28.288 36.8763 28.3547 36.8976 28.44L38.0336 33.352L39.2416 28.552C39.263 28.4613 39.3056 28.3947 39.3696 28.352C39.439 28.304 39.5243 28.28 39.6256 28.28C39.8283 28.28 39.9536 28.3707 40.0016 28.552L41.2256 33.352L42.3536 28.44C42.375 28.3547 42.415 28.288 42.4736 28.24C42.5376 28.192 42.6096 28.168 42.6896 28.168C42.759 28.168 42.8176 28.1787 42.8656 28.2C43.031 28.2533 43.1136 28.3653 43.1136 28.536C43.1136 28.5893 43.1056 28.6453 43.0896 28.704L41.6896 34.456C41.6683 34.5467 41.6176 34.6187 41.5376 34.672C41.463 34.72 41.3723 34.744 41.2656 34.744C41.159 34.744 41.063 34.72 40.9776 34.672C40.8976 34.6187 40.8443 34.5467 40.8176 34.456C40.3963 32.9947 39.999 31.4533 39.6256 29.832C39.263 31.4107 38.863 32.952 38.4256 34.456C38.399 34.5467 38.3456 34.6187 38.2656 34.672C38.191 34.72 38.1003 34.744 37.9936 34.744ZM43.817 34.744C43.6943 34.744 43.5983 34.7093 43.529 34.64C43.4597 34.5707 43.425 34.472 43.425 34.344V30.648C43.425 30.52 43.457 30.4213 43.521 30.352C43.5903 30.2827 43.689 30.248 43.817 30.248C43.9397 30.248 44.033 30.2827 44.097 30.352C44.1663 30.4213 44.201 30.52 44.201 30.648V34.344C44.201 34.472 44.1663 34.5707 44.097 34.64C44.033 34.7093 43.9397 34.744 43.817 34.744ZM43.817 29.32C43.673 29.32 43.5503 29.272 43.449 29.176C43.353 29.08 43.305 28.9627 43.305 28.824C43.305 28.6853 43.353 28.568 43.449 28.472C43.5503 28.3707 43.673 28.32 43.817 28.32C43.961 28.32 44.081 28.3707 44.177 28.472C44.2783 28.568 44.329 28.6853 44.329 28.824C44.329 28.9627 44.2783 29.08 44.177 29.176C44.081 29.272 43.961 29.32 43.817 29.32ZM47.1854 34.752C46.7054 34.752 46.3347 34.6107 46.0734 34.328C45.8174 34.0453 45.6894 33.616 45.6894 33.04V30.984H45.0094C44.8814 30.984 44.7827 30.9547 44.7134 30.896C44.644 30.8373 44.6094 30.7493 44.6094 30.632C44.6094 30.52 44.644 30.4347 44.7134 30.376C44.7827 30.312 44.8814 30.28 45.0094 30.28H45.6894V28.728C45.6894 28.6 45.7214 28.5013 45.7854 28.432C45.8547 28.3627 45.9507 28.328 46.0734 28.328C46.2014 28.328 46.2974 28.3627 46.3614 28.432C46.4307 28.5013 46.4654 28.6 46.4654 28.728V30.28H47.7694C47.8974 30.28 47.996 30.312 48.0654 30.376C48.1347 30.4347 48.1694 30.52 48.1694 30.632C48.1694 30.744 48.1347 30.832 48.0654 30.896C47.996 30.9547 47.8974 30.984 47.7694 30.984H46.4654V33.04C46.4654 33.4027 46.5267 33.664 46.6494 33.824C46.772 33.9787 46.9507 34.056 47.1854 34.056C47.34 34.056 47.4787 34.0293 47.6014 33.976C47.724 33.9173 47.844 33.8267 47.9614 33.704C48.0307 33.6187 48.1214 33.576 48.2334 33.576C48.324 33.576 48.4067 33.6133 48.4814 33.688C48.5454 33.7573 48.5774 33.832 48.5774 33.912C48.5774 34.0187 48.5294 34.1253 48.4334 34.232C48.1187 34.5787 47.7027 34.752 47.1854 34.752ZM49.3088 34.744C49.1861 34.744 49.0901 34.7093 49.0208 34.64C48.9515 34.5707 48.9168 34.472 48.9168 34.344V28.488C48.9168 28.36 48.9488 28.2613 49.0128 28.192C49.0821 28.1227 49.1808 28.088 49.3088 28.088C49.4315 28.088 49.5248 28.1227 49.5888 28.192C49.6581 28.2613 49.6928 28.36 49.6928 28.488V30.832C49.9968 30.4213 50.4288 30.216 50.9888 30.216C51.5861 30.216 52.0555 30.408 52.3968 30.792C52.7381 31.1707 52.9115 31.688 52.9168 32.344V34.344C52.9168 34.472 52.8821 34.5707 52.8128 34.64C52.7488 34.7093 52.6555 34.744 52.5328 34.744C52.4101 34.744 52.3141 34.7093 52.2448 34.64C52.1755 34.5707 52.1408 34.472 52.1408 34.344V32.368C52.1408 31.8933 52.0421 31.5333 51.8448 31.288C51.6528 31.0373 51.3675 30.912 50.9888 30.912C50.5995 30.912 50.2848 31.048 50.0448 31.32C49.8101 31.592 49.6928 31.9547 49.6928 32.408V34.344C49.6928 34.472 49.6581 34.5707 49.5888 34.64C49.5248 34.7093 49.4315 34.744 49.3088 34.744ZM55.3492 34.744C55.2265 34.744 55.1305 34.7093 55.0612 34.64C54.9919 34.5707 54.9572 34.472 54.9572 34.344V28.568C54.9572 28.44 54.9919 28.3413 55.0612 28.272C55.1359 28.2027 55.2372 28.168 55.3652 28.168C55.4719 28.168 55.5572 28.1893 55.6212 28.232C55.6852 28.2747 55.7359 28.344 55.7732 28.44C56.2532 29.624 56.9305 31.344 57.8052 33.6C58.6799 31.344 59.3572 29.624 59.8372 28.44C59.9065 28.2587 60.0505 28.168 60.2692 28.168C60.3919 28.168 60.4879 28.2027 60.5572 28.272C60.6319 28.3413 60.6692 28.44 60.6692 28.568V34.344C60.6692 34.472 60.6345 34.5707 60.5652 34.64C60.5012 34.7093 60.4079 34.744 60.2852 34.744C60.1625 34.744 60.0665 34.7093 59.9972 34.64C59.9279 34.5707 59.8932 34.472 59.8932 34.344L59.9092 31.568L59.9492 29.984C59.7679 30.5013 59.5652 31.0373 59.3412 31.592C59.1225 32.1467 58.8399 32.8293 58.4932 33.64L58.2132 34.312C58.1332 34.4933 57.9972 34.584 57.8052 34.584C57.6132 34.584 57.4772 34.4933 57.3972 34.312L57.0452 33.472C56.4319 32.0213 55.9759 30.8693 55.6772 30.016L55.7172 31.584L55.7332 34.344C55.7332 34.472 55.6985 34.5707 55.6292 34.64C55.5652 34.7093 55.4719 34.744 55.3492 34.744ZM63.3613 34.752C62.9186 34.752 62.532 34.6587 62.2013 34.472C61.876 34.28 61.6253 34.0133 61.4493 33.672C61.2733 33.3307 61.1853 32.936 61.1853 32.488C61.1853 32.0293 61.268 31.6293 61.4333 31.288C61.604 30.9413 61.844 30.6773 62.1533 30.496C62.4626 30.3093 62.8253 30.216 63.2413 30.216C63.636 30.216 63.9933 30.312 64.3133 30.504C64.6333 30.7013 64.8786 30.9733 65.0493 31.32C65.22 31.6667 65.2973 32.056 65.2813 32.488C65.276 32.6 65.2386 32.688 65.1693 32.752C65.1053 32.8107 65.0093 32.84 64.8813 32.84H62.0013C62.06 33.2347 62.2093 33.5387 62.4493 33.752C62.6946 33.9653 63.0013 34.072 63.3693 34.072C63.7746 34.072 64.1133 33.968 64.3853 33.76C64.4706 33.6907 64.5666 33.656 64.6733 33.656C64.764 33.656 64.8413 33.688 64.9053 33.752C64.9693 33.816 65.0013 33.8933 65.0013 33.984C65.0013 34.096 64.9533 34.1973 64.8573 34.288C64.708 34.4213 64.4946 34.5333 64.2173 34.624C63.9453 34.7093 63.66 34.752 63.3613 34.752ZM64.4653 32.152C64.4546 31.7893 64.3346 31.4933 64.1053 31.264C63.876 31.0293 63.5906 30.912 63.2493 30.912C62.8973 30.912 62.6146 31.0187 62.4013 31.232C62.188 31.44 62.052 31.7467 61.9933 32.152H64.4653Z" fill="#352B29"/>
<path d="M26.6846 34.712C26.5086 34.6533 26.4206 34.544 26.4206 34.384C26.4206 34.3147 26.4313 34.256 26.4526 34.208L28.5326 28.44C28.5966 28.2587 28.7326 28.168 28.9406 28.168C29.1486 28.168 29.2846 28.2587 29.3486 28.44L31.4286 34.208C31.45 34.256 31.4606 34.3147 31.4606 34.384C31.4606 34.5387 31.3753 34.648 31.2046 34.712C31.1566 34.7333 31.1006 34.744 31.0366 34.744C30.8713 34.744 30.7566 34.6533 30.6926 34.472L30.1086 32.816H27.7726L27.1886 34.472C27.1246 34.6533 27.0126 34.744 26.8526 34.744C26.7886 34.744 26.7326 34.7333 26.6846 34.712ZM29.8606 32.096L28.9406 29.48L28.0206 32.096H29.8606Z" fill="#F26444"/>
<circle cx="68" cy="6" r="1.5" fill="white" stroke="#352B29"/>
</svg>
