<svg width="360" height="600" viewBox="0 0 360 600" fill="none" xmlns="http://www.w3.org/2000/svg">
<rect width="360" height="600" fill="white"/>
<path d="M49.0859 105.977V108.344H29.6328V105.977H37.8594V104.406C34.0039 104.113 31.5781 102.625 31.5781 100.328C31.5781 97.7266 34.6484 96.1797 39.3594 96.1797C44.0938 96.1797 47.0938 97.7266 47.1172 100.328C47.0938 102.637 44.6914 104.137 40.7891 104.43V105.977H49.0859ZM40.8594 109.773C40.8594 112.07 43.0859 114.203 47.7734 114.766L46.6484 117.062C43.168 116.582 40.6602 115.223 39.3359 113.289C38.0234 115.223 35.5273 116.582 32.0703 117.062L30.9453 114.766C35.5859 114.203 37.8125 112.07 37.8359 109.773V109.375H40.8594V109.773ZM39.3594 98.4766C36.3828 98.4531 34.6719 99.0859 34.6953 100.328C34.6719 101.547 36.3828 102.133 39.3594 102.133C42.3125 102.133 44.0234 101.547 44.0234 100.328C44.0234 99.0859 42.3125 98.4531 39.3594 98.4766ZM58.9016 96.1328C63.8 96.1328 66.6359 97.4219 66.6594 99.7656C66.6359 102.133 63.8 103.422 58.9016 103.422C53.9797 103.422 51.1203 102.133 51.1203 99.7656C51.1203 97.4219 53.9797 96.1328 58.9016 96.1328ZM58.9016 98.3125C55.7609 98.3125 54.2375 98.8281 54.2609 99.7656C54.2375 100.82 55.7609 101.219 58.9016 101.219C62.0656 101.219 63.5656 100.82 63.5656 99.7656C63.5656 98.8281 62.0656 98.3125 58.9016 98.3125ZM68.6281 104.43V106.797H49.175V104.43H68.6281ZM66.2609 108.039V113.477H54.3781V114.766H66.8234V117.016H51.4484V111.391H63.3078V110.219H51.425V108.039H66.2609ZM91.0719 95.8281V117.203H88.0719V105.695H84.2516V103.258H88.0719V95.8281H91.0719ZM81.1109 101.172C81.1109 104.922 82.8219 108.836 86.4313 110.383L84.6734 112.75C82.2008 111.59 80.525 109.352 79.6109 106.633C78.6852 109.539 76.9859 111.965 74.5016 113.195L72.7203 110.828C76.3063 109.188 78.0406 105.133 78.0406 101.172V100.281H73.6109V97.8906H85.5406V100.281H81.1109V101.172ZM104.708 97.2578V99.6484H100.466C100.489 102.133 101.977 104.535 105.388 105.531L103.958 107.875C101.602 107.16 99.9734 105.73 99.0359 103.891C98.0867 106.047 96.3523 107.758 93.7859 108.602L92.2625 106.234C95.8016 105.121 97.3953 102.355 97.4422 99.6484H93.0828V97.2578H104.708ZM109.513 95.8281V100.773H112.395V103.211H109.513V108.484H106.513V95.8281H109.513ZM102.528 108.906C106.958 108.883 109.723 110.406 109.723 113.008C109.723 115.609 106.958 117.156 102.528 117.156C98.0047 117.156 95.2156 115.609 95.2156 113.008C95.2156 110.406 98.0047 108.883 102.528 108.906ZM102.528 111.227C99.7156 111.227 98.1922 111.812 98.2156 113.008C98.1922 114.227 99.7156 114.836 102.528 114.836C105.294 114.836 106.77 114.227 106.77 113.008C106.77 111.812 105.294 111.227 102.528 111.227ZM128.961 95.8281V104.172H132.102V106.633H128.961V117.156H126.008V95.8281H128.961ZM124.555 99.0156V101.406H112.016V99.0156H116.844V96.1562H119.844V99.0156H124.555ZM118.344 102.602C121.461 102.602 123.781 104.711 123.781 107.688C123.781 110.664 121.461 112.773 118.344 112.773C115.203 112.773 112.883 110.664 112.883 107.688C112.883 104.711 115.203 102.602 118.344 102.602ZM118.344 105.016C116.844 105.039 115.742 106.047 115.742 107.688C115.742 109.352 116.844 110.336 118.344 110.312C119.844 110.336 120.922 109.352 120.922 107.688C120.922 106.047 119.844 105.039 118.344 105.016ZM149.253 97.6797V99.6953C149.253 102.367 149.253 105.367 148.386 109.891L145.386 109.586C146.195 105.555 146.23 102.555 146.253 100.047H133.691V97.6797H149.253ZM151.128 112.117V114.555H131.675V112.117H138.636V104.781H141.613V112.117H151.128ZM49.1328 136.938V139.281H40.8594V140.922H46.8828V147.156H43.8594V143.312H31.7891V140.922H37.8828V139.281H29.6094V136.938H49.1328ZM46.7656 126.227V132.016H35.0234V133.422H47.1641V135.719H32.0469V129.859H43.7656V128.547H32V126.227H46.7656ZM58.9016 126.133C63.8 126.133 66.6359 127.422 66.6594 129.766C66.6359 132.133 63.8 133.422 58.9016 133.422C53.9797 133.422 51.1203 132.133 51.1203 129.766C51.1203 127.422 53.9797 126.133 58.9016 126.133ZM58.9016 128.312C55.7609 128.312 54.2375 128.828 54.2609 129.766C54.2375 130.82 55.7609 131.219 58.9016 131.219C62.0656 131.219 63.5656 130.82 63.5656 129.766C63.5656 128.828 62.0656 128.312 58.9016 128.312ZM68.6281 134.43V136.797H49.175V134.43H68.6281ZM66.2609 138.039V143.477H54.3781V144.766H66.8234V147.016H51.4484V141.391H63.3078V140.219H51.425V138.039H66.2609ZM90.9781 125.828V147.156H87.9547V125.828H90.9781ZM84.5797 128.055C84.5797 134.523 82.3063 139.891 74.6891 143.5L73.1188 141.109C78.6266 138.508 81.0523 135.133 81.5328 130.398H74.2672V128.055H84.5797ZM112.091 137.266V139.656H92.5672V137.266H100.841V135.719H95.0047V129.859H106.723V128.547H94.9578V126.227H109.723V132.016H97.9813V133.422H110.122V135.719H103.817V137.266H112.091ZM109.841 140.875V147.062H106.817V143.219H94.7469V140.875H109.841ZM122.422 129.086V131.453H112.109V129.086H115.812V126.414H118.766V129.086H122.422ZM117.312 132.414C120.031 132.414 121.977 134.523 122 137.477C121.977 140.453 120.031 142.562 117.312 142.562C114.594 142.562 112.602 140.453 112.602 137.477C112.602 134.523 114.594 132.414 117.312 132.414ZM117.312 134.898C116.07 134.898 115.227 135.859 115.227 137.477C115.227 139.094 116.07 140.031 117.312 140.031C118.508 140.031 119.352 139.094 119.375 137.477C119.352 135.859 118.508 134.898 117.312 134.898ZM130.578 125.828V147.156H127.742V136.891H126.008V146.242H123.219V126.25H126.008V134.5H127.742V125.828H130.578ZM155.53 142.234V144.672H136.006V142.234H144.233V138.297H138.069V127.188H141.069V130.492H150.373V127.188H153.35V138.297H147.209V142.234H155.53ZM141.069 135.906H150.373V132.883H141.069V135.906ZM162.392 131.195C162.392 134.641 163.353 138.203 166.259 140.078L164.642 142.398C162.802 141.285 161.63 139.457 160.963 137.266C160.189 139.68 158.912 141.695 156.978 142.867L155.15 140.664C158.314 138.695 159.486 134.945 159.486 131.336V127.656H162.392V131.195ZM174.041 125.828V147.156H171.181V125.828H174.041ZM169.564 126.133V146.172H166.775V135.461H164.009V133.023H166.775V126.133H169.564ZM194.614 142.211V144.672H175.091V142.211H179.45V136.984C177.798 136 176.802 134.488 176.802 132.602C176.802 129.156 180.177 126.859 184.817 126.859C189.434 126.859 192.833 129.156 192.856 132.602C192.845 134.441 191.872 135.941 190.278 136.938V142.211H194.614ZM184.817 129.227C181.77 129.227 179.755 130.445 179.755 132.602C179.755 134.688 181.77 135.977 184.817 135.977C187.841 135.977 189.88 134.688 189.903 132.602C189.88 130.445 187.841 129.227 184.817 129.227ZM182.403 142.211H187.255V138.062C186.493 138.215 185.673 138.297 184.817 138.297C183.962 138.297 183.153 138.227 182.403 138.062V142.211Z" fill="#333333"/>
<path d="M48 209C48 196.85 57.8497 187 70 187H289C301.15 187 311 196.85 311 209V533H48V209Z" fill="#D9D9D9"/>
<path d="M61 221C61 208.85 70.8497 199 83 199H277C289.15 199 299 208.85 299 221V533H61V221Z" fill="white"/>
<g clip-path="url(#clip0_788_3440)">
<path d="M84.1357 232.866V241.165H82.7442V237.041H80.7008C80.4062 238.369 79.2341 239.272 77.7924 239.272C76.0875 239.272 74.7963 238.081 74.7963 236.414C74.7963 234.746 76.0875 233.568 77.7924 233.568C79.2717 233.568 80.4689 234.508 80.7258 235.9H82.7442V232.866H84.1357ZM84.424 242.832V243.96H76.7018V240.325H78.0933V242.832H84.424ZM77.7924 234.784C76.8397 234.784 76.1251 235.411 76.1251 236.414C76.1251 237.417 76.8397 238.069 77.7924 238.069C78.7201 238.069 79.4221 237.417 79.4346 236.414C79.4221 235.411 78.7201 234.784 77.7924 234.784ZM95.4933 232.854V244.186H94.1645V232.854H95.4933ZM93.1867 233.067V243.635H91.8704V237.931H90.2407V236.802H91.8704V233.067H93.1867ZM89.2378 235.95C89.2378 237.868 89.9273 239.786 91.5445 240.714L90.7171 241.742C89.6703 241.115 88.9746 240.037 88.586 238.745C88.1848 240.143 87.464 241.334 86.3922 242.005L85.5397 240.964C87.1819 239.974 87.8965 237.918 87.8965 235.95V235.198H85.9283V234.07H91.0681V235.198H89.2378V235.95ZM109.321 232.854V238.934H107.917V232.854H109.321ZM103.203 239.46V240.626H107.929V239.46H109.321V244.048H101.824V239.46H103.203ZM103.203 242.92H107.929V241.717H103.203V242.92ZM103.14 233.355C104.883 233.342 106.187 234.433 106.187 236.013C106.187 237.555 104.883 238.645 103.14 238.645C101.385 238.645 100.082 237.555 100.082 236.013C100.082 234.433 101.385 233.342 103.14 233.355ZM103.14 234.521C102.15 234.521 101.435 235.097 101.448 236.013C101.435 236.915 102.15 237.492 103.14 237.504C104.118 237.492 104.82 236.915 104.82 236.013C104.82 235.097 104.118 234.521 103.14 234.521ZM116.128 233.493C118.522 233.493 120.352 234.759 120.352 236.69C120.352 238.645 118.522 239.911 116.128 239.911C113.746 239.911 111.916 238.645 111.928 236.69C111.916 234.759 113.746 233.493 116.128 233.493ZM116.128 234.621C114.485 234.609 113.269 235.436 113.269 236.69C113.269 237.968 114.485 238.771 116.128 238.771C117.782 238.771 118.986 237.968 118.986 236.69C118.986 235.436 117.782 234.609 116.128 234.621ZM121.33 241.616V242.757H110.975V241.616H121.33ZM125.605 235.825C125.605 237.655 126.244 239.56 127.774 240.526L127.009 241.591C125.987 240.977 125.323 239.918 124.953 238.67C124.539 240.043 123.812 241.203 122.747 241.854L121.882 240.814C123.524 239.811 124.264 237.818 124.264 235.887V233.856H125.605V235.825ZM131.848 232.854V244.186H130.507V232.854H131.848ZM129.491 233.054V243.635H128.175V237.906H126.558V236.752H128.175V233.054H129.491ZM143.519 241.666V242.807H133.164V241.666H135.559V238.796C134.656 238.282 134.111 237.473 134.117 236.464C134.104 234.659 135.885 233.468 138.317 233.468C140.761 233.468 142.541 234.659 142.541 236.464C142.541 237.454 142.015 238.25 141.137 238.771V241.666H143.519ZM138.317 234.571C136.624 234.571 135.471 235.286 135.483 236.464C135.471 237.63 136.624 238.357 138.317 238.357C140.009 238.357 141.175 237.63 141.175 236.464C141.175 235.286 140.009 234.571 138.317 234.571ZM136.938 241.666H139.721V239.297C139.288 239.397 138.818 239.448 138.317 239.448C137.828 239.448 137.364 239.397 136.938 239.31V241.666ZM146.177 240.287C146.189 238.695 146.64 238.206 147.43 237.718C147.969 237.379 148.37 236.953 148.37 236.326C148.37 235.624 147.831 235.173 147.142 235.173C146.515 235.173 145.913 235.574 145.876 236.414H144.309C144.346 234.734 145.613 233.869 147.154 233.869C148.847 233.869 150.013 234.809 150.013 236.301C150.013 237.316 149.499 237.981 148.684 238.47C147.957 238.908 147.656 239.347 147.643 240.287V240.4H146.177V240.287ZM146.954 243.171C146.415 243.171 145.976 242.732 145.976 242.193C145.976 241.666 146.415 241.228 146.954 241.228C147.468 241.228 147.919 241.666 147.919 242.193C147.919 242.732 147.468 243.171 146.954 243.171Z" fill="black"/>
<mask id="path-5-inside-1_788_3440" fill="white">
<path d="M74.2695 251.07H284.795V312.865H74.2695V251.07Z"/>
</mask>
<path d="M284.795 312.544H74.2695V313.186H284.795V312.544Z" fill="#C4C0BC" mask="url(#path-5-inside-1_788_3440)"/>
<g clip-path="url(#clip1_788_3440)">
<path d="M81.8852 258.184V266.684H80.8886V258.184H81.8852ZM80.127 258.391V266.28H79.1304V263.44H77.8047V262.585H79.1304V261.325H77.9551C77.5555 262.735 76.6671 263.948 75.0781 264.888L74.467 264.145C76.2299 263.106 77.0384 261.776 77.1936 260.065H74.9183V259.219H78.2278C78.2278 259.646 78.1996 260.065 78.1432 260.469H79.1304V258.391H80.127ZM85.9657 259.435C85.9563 260.347 86.652 261.296 87.9495 261.673L87.4606 262.5C86.4969 262.218 85.8152 261.621 85.4392 260.873C85.0537 261.701 84.3391 262.378 83.3519 262.688L82.8348 261.87C84.1605 261.437 84.9127 260.403 84.9127 259.425V259.397H83.1263V258.551H87.7239V259.397H85.9657V259.435ZM89.9898 258.184V262.538H88.9461V260.817H87.4888V259.98H88.9461V258.184H89.9898ZM89.9898 262.895V265.104H85.4392V265.772H90.2624V266.59H84.3955V264.324H88.9461V263.722H84.3861V262.895H89.9898Z" fill="#111111"/>
<path d="M224.033 262.491V262.989H216.474V262.491H219.962V261.475H217.489V258.457H218.082V259.463H222.444V258.457H223.036V261.475H220.554V262.491H224.033ZM218.082 260.986H222.444V259.933H218.082V260.986ZM223.093 263.835V266.458H217.414V263.835H223.093ZM217.997 264.315V265.969H222.519V264.315H217.997ZM226.008 265.274L225.321 267.709H224.766L225.293 265.274H226.008ZM231.724 258.946C232.49 258.946 233.111 259.402 233.463 260.187H235.767V258.288H236.35V266.59H235.767V263.337H233.51C233.162 264.183 232.528 264.681 231.724 264.681C230.511 264.681 229.665 263.562 229.674 261.814C229.665 260.065 230.511 258.946 231.724 258.946ZM231.724 259.472C230.84 259.472 230.238 260.431 230.238 261.814C230.238 263.205 230.84 264.155 231.724 264.155C232.598 264.155 233.21 263.205 233.21 261.814C233.21 260.431 232.598 259.472 231.724 259.472ZM233.642 260.695C233.722 261.028 233.774 261.405 233.774 261.814C233.774 262.18 233.731 262.523 233.661 262.829H235.767V260.695H233.642ZM245.413 262.594V263.092H237.826V262.594H245.413ZM244.426 258.504V260.375H239.405V261.315H244.605V261.795H238.823V259.924H243.834V258.993H238.794V258.504H244.426ZM244.417 263.938V266.458H238.879V263.938H244.417ZM239.462 264.427V265.969H243.834V264.427H239.462ZM247.369 265.274L246.683 267.709H246.128L246.654 265.274H247.369ZM257.26 258.288V261.72H258.661V262.227H257.26V266.58H256.668V258.288H257.26ZM255.135 259.19C255.126 261.494 253.979 263.628 251.299 264.954L250.97 264.484C253.179 263.393 254.383 261.691 254.533 259.689H251.337V259.19H255.135ZM262.967 258.438C264.791 258.438 265.872 258.946 265.872 259.877C265.872 260.817 264.791 261.334 262.967 261.334C261.143 261.334 260.062 260.817 260.062 259.877C260.062 258.946 261.143 258.438 262.967 258.438ZM262.967 258.899C261.547 258.899 260.673 259.275 260.673 259.877C260.673 260.507 261.547 260.873 262.967 260.873C264.396 260.873 265.27 260.507 265.27 259.877C265.27 259.275 264.396 258.899 262.967 258.899ZM266.756 261.955V262.444H259.197V261.955H266.756ZM265.759 263.233V265.01H260.729V265.988H266.023V266.477H260.156V264.55H265.186V263.703H260.128V263.233H265.759Z" fill="#9747FF"/>
<path d="M275.408 264.429L279.019 260.818L282.629 264.429" stroke="#C4C0BC" stroke-width="0.96277" stroke-linecap="round" stroke-linejoin="round"/>
</g>
<g clip-path="url(#clip2_788_3440)">
<rect x="74.5102" y="278.999" width="18.7882" height="18.2208" rx="7.46147" fill="#F8F8F8"/>
<rect x="74.5102" y="278.999" width="18.7882" height="18.2208" rx="7.46147" stroke="#333333" stroke-width="0.481385"/>
<path d="M87.3302 288.253V288.751H79.771V288.253H83.2591V287.238H80.7864V284.219H81.3787V285.226H85.7413V284.219H86.3336V287.238H83.8515V288.253H87.3302ZM81.3787 286.749H85.7413V285.696H81.3787V286.749ZM86.39 289.597V292.221H80.7112V289.597H86.39ZM81.2941 290.077V291.732H85.8165V290.077H81.2941Z" fill="black"/>
<rect x="98.9145" y="278.999" width="26.7882" height="18.2208" rx="7.46147" fill="#F8F8F8"/>
<rect x="98.9145" y="278.999" width="26.7882" height="18.2208" rx="7.46147" stroke="#333333" stroke-width="0.481385"/>
<path d="M106.385 284.709C107.151 284.709 107.772 285.165 108.124 285.95H110.428V284.05H111.011V292.352H110.428V289.099H108.171C107.823 289.945 107.189 290.444 106.385 290.444C105.172 290.444 104.326 289.325 104.335 287.576C104.326 285.827 105.172 284.709 106.385 284.709ZM106.385 285.235C105.501 285.235 104.899 286.194 104.899 287.576C104.899 288.968 105.501 289.917 106.385 289.917C107.259 289.917 107.87 288.968 107.87 287.576C107.87 286.194 107.259 285.235 106.385 285.235ZM108.303 286.457C108.383 286.791 108.434 287.167 108.434 287.576C108.434 287.943 108.392 288.286 108.322 288.592H110.428V286.457H108.303ZM120.074 288.357V288.855H112.487V288.357H120.074ZM119.087 284.267V286.138H114.066V287.078H119.266V287.557H113.483V285.686H118.495V284.756H113.455V284.267H119.087ZM119.078 289.701V292.221H113.54V289.701H119.078ZM114.123 290.19V291.732H118.495V290.19H114.123Z" fill="black"/>
<rect x="131.319" y="278.999" width="26.7882" height="18.2208" rx="7.46147" fill="#F8F8F8"/>
<rect x="131.319" y="278.999" width="26.7882" height="18.2208" rx="7.46147" stroke="#333333" stroke-width="0.481385"/>
<path d="M142.964 284.05V287.482H144.364V287.99H142.964V292.343H142.371V284.05H142.964ZM140.839 284.953C140.829 287.256 139.682 289.391 137.003 290.716L136.674 290.246C138.883 289.156 140.087 287.454 140.237 285.451H137.04V284.953H140.839ZM148.671 284.201C150.495 284.201 151.576 284.709 151.576 285.639C151.576 286.58 150.495 287.097 148.671 287.097C146.847 287.097 145.765 286.58 145.765 285.639C145.765 284.709 146.847 284.201 148.671 284.201ZM148.671 284.662C147.251 284.662 146.377 285.038 146.377 285.639C146.377 286.269 147.251 286.636 148.671 286.636C150.1 286.636 150.974 286.269 150.974 285.639C150.974 285.038 150.1 284.662 148.671 284.662ZM152.46 287.717V288.206H144.9V287.717H152.46ZM151.463 288.996V290.773H146.433V291.751H151.726V292.24H145.859V290.312H150.889V289.466H145.831V288.996H151.463Z" fill="black"/>
<rect x="163.723" y="278.999" width="26.7882" height="18.2208" rx="7.46147" fill="white"/>
<rect x="163.723" y="278.999" width="26.7882" height="18.2208" rx="7.46147" stroke="#D2D2D2" stroke-width="0.481385"/>
<path d="M173.177 284.962C173.177 285.442 173.13 285.912 173.036 286.373H175.227V284.032H175.81V292.334H175.227V289.08H172.773V288.573H175.227V286.862H172.904C172.425 288.404 171.311 289.767 169.341 290.726L169.021 290.237C171.301 289.146 172.453 287.44 172.594 285.451H169.369V284.962H173.177ZM181.075 284.154C182.899 284.154 183.98 284.671 183.98 285.602C183.98 286.533 182.899 287.05 181.075 287.05C179.251 287.05 178.169 286.533 178.169 285.602C178.169 284.671 179.251 284.154 181.075 284.154ZM181.075 284.624C179.655 284.624 178.781 284.991 178.781 285.602C178.781 286.222 179.655 286.58 181.075 286.58C182.504 286.58 183.378 286.222 183.378 285.602C183.378 284.991 182.504 284.624 181.075 284.624ZM184.864 287.651V288.14H181.376V288.996H183.867V290.773H178.837V291.751H184.13V292.24H178.263V290.312H183.294V289.466H178.235V288.996H180.783V288.14H177.304V287.651H184.864Z" fill="#767676"/>
</g>
<mask id="path-18-inside-2_788_3440" fill="white">
<path d="M74.2695 312.865H284.795V422.333H74.2695V312.865Z"/>
</mask>
<path d="M284.795 422.012H74.2695V422.654H284.795V422.012Z" fill="#C4C0BC" mask="url(#path-18-inside-2_788_3440)"/>
<g clip-path="url(#clip3_788_3440)">
<path d="M74.5986 321.859V320.835H80.0236V321.859H77.9269V327.642H76.7047V321.859H74.5986ZM80.9826 327.642V320.835H83.54C85.1007 320.835 85.9375 321.784 85.9375 323.091C85.9375 324.398 85.0913 325.338 83.5211 325.338H82.2049V327.642H80.9826ZM82.2049 324.332H83.3519C84.2733 324.332 84.687 323.815 84.687 323.091C84.687 322.358 84.2733 321.859 83.3519 321.859H82.2049V324.332ZM92.9984 324.238C92.9984 326.438 91.6633 327.736 89.8769 327.736C88.0905 327.736 86.7555 326.429 86.7555 324.238C86.7555 322.038 88.0905 320.74 89.8769 320.74C91.6633 320.74 92.9984 322.038 92.9984 324.238ZM91.7667 324.238C91.7667 322.687 90.9864 321.841 89.8769 321.841C88.7675 321.841 87.9871 322.687 87.9871 324.238C87.9871 325.789 88.7675 326.636 89.8769 326.636C90.9864 326.636 91.7667 325.789 91.7667 324.238Z" fill="#111111"/>
<path d="M188.511 321.436V320.835H193.485V321.436H191.341V327.642H190.665V321.436H188.511ZM194.698 327.642V320.835H196.926C198.393 320.835 199.136 321.747 199.136 322.95C199.136 324.144 198.393 325.065 196.936 325.065H195.366V327.642H194.698ZM195.366 324.464H196.907C197.97 324.464 198.478 323.824 198.478 322.95C198.478 322.066 197.97 321.436 196.898 321.436H195.366V324.464ZM206.027 324.238C206.027 326.372 204.796 327.736 203.075 327.736C201.345 327.736 200.114 326.372 200.114 324.238C200.114 322.104 201.345 320.74 203.075 320.74C204.796 320.74 206.027 322.104 206.027 324.238ZM205.379 324.238C205.379 322.423 204.392 321.37 203.075 321.37C201.759 321.37 200.772 322.423 200.772 324.238C200.772 326.043 201.75 327.106 203.075 327.106C204.392 327.106 205.379 326.053 205.379 324.238ZM214.489 323.975V324.454H206.902V323.975H214.489ZM213.53 325.206V326.908H208.434V327.801H213.812V328.253H207.851V326.466H212.938V325.667H207.833V325.206H213.53ZM213.502 320.364V322H208.481V322.818H213.643V323.27H207.898V321.577H212.91V320.806H207.87V320.364H213.502ZM220.309 321.69C220.3 322.875 221.231 323.975 222.406 324.407L222.067 324.877C221.146 324.501 220.37 323.744 220.027 322.8C219.675 323.843 218.875 324.671 217.902 325.075L217.583 324.586C218.777 324.125 219.726 322.959 219.726 321.652V320.581H220.309V321.69ZM224.39 320.082V326.325H223.797V322.612H221.851V322.104H223.797V320.082H224.39ZM224.587 327.679V328.178H219.078V325.592H219.67V327.679H224.587ZM229.467 320.703V321.201H226.844V322.367H229.373V322.847H226.844V324.116C228.155 324.116 228.926 324.074 229.852 323.881L229.918 324.379C228.94 324.586 228.16 324.624 226.778 324.624H226.27V320.703H229.467ZM232.889 320.082V325.103H232.325V322.79H231.018V325.047H230.454V320.242H231.018V322.292H232.325V320.082H232.889ZM232.889 325.554V328.375H232.316V326.053H227.342V325.554H232.889ZM238.389 321.568V322.057H234.177V321.568H235.982V320.336H236.584V321.568H238.389ZM236.283 322.677C237.318 322.687 238.06 323.448 238.06 324.539C238.06 325.639 237.318 326.41 236.283 326.41C235.249 326.41 234.506 325.639 234.506 324.539C234.506 323.448 235.249 322.687 236.283 322.677ZM236.283 323.185C235.559 323.194 235.033 323.777 235.042 324.539C235.033 325.31 235.559 325.893 236.283 325.883C236.998 325.893 237.524 325.31 237.534 324.539C237.524 323.777 236.998 323.194 236.283 323.185ZM241.229 320.082V328.375H240.665V324.116H239.414V327.952H238.859V320.289H239.414V323.618H240.665V320.082H241.229ZM246.616 321.248C246.616 322.442 248.271 323.392 249.597 323.599L249.371 324.069C248.144 323.843 246.79 323.138 246.296 322.094C245.793 323.138 244.435 323.843 243.231 324.069L242.996 323.599C244.313 323.392 245.967 322.442 245.967 321.248V321.117H243.241V320.628H249.333V321.117H246.616V321.248ZM250.076 324.849V325.357H246.569V328.366H245.996V325.357H242.517V324.849H250.076ZM253.235 322.527C253.235 323.834 253.969 325.272 255.059 325.902L254.702 326.363C253.884 325.869 253.259 324.939 252.963 323.89C252.662 325.033 251.994 326.02 251.157 326.532L250.762 326.09C251.881 325.451 252.662 323.975 252.671 322.546V320.882H253.235V322.527ZM257.917 320.082V328.375H257.344V320.082H257.917ZM256.206 320.27V327.942H255.642V323.627H254.128V323.11H255.642V320.27H256.206ZM266.755 326.767V327.275H259.158V326.767H261.095V324.464C260.367 324.097 259.929 323.5 259.929 322.753C259.929 321.474 261.171 320.646 262.929 320.637C264.696 320.646 265.937 321.474 265.937 322.753C265.937 323.491 265.51 324.083 264.8 324.445V326.767H266.755ZM262.929 321.135C261.518 321.126 260.494 321.784 260.494 322.753C260.494 323.702 261.518 324.37 262.929 324.36C264.339 324.37 265.373 323.702 265.373 322.753C265.373 321.784 264.339 321.126 262.929 321.135ZM261.678 326.767H264.207V324.671C263.827 324.783 263.394 324.84 262.929 324.84C262.473 324.84 262.05 324.783 261.678 324.68V326.767Z" fill="#C4C0BC"/>
<path d="M275.408 326.223L279.019 322.613L282.629 326.223" stroke="#C4C0BC" stroke-width="0.96277" stroke-linecap="round" stroke-linejoin="round"/>
</g>
<g clip-path="url(#clip4_788_3440)">
<rect x="74.5102" y="340.794" width="34.7882" height="18.2208" rx="7.46147" fill="white"/>
<rect x="74.5102" y="340.794" width="34.7882" height="18.2208" rx="7.46147" stroke="#D2D2D2" stroke-width="0.481385"/>
<path d="M86.8413 345.845V354.138H86.2584V345.845H86.8413ZM85.1678 346.052V353.686H84.5942V349.559H82.6668V349.051H84.5942V346.052H85.1678ZM83.2309 346.889V347.387H80.6924V351.58C81.9993 351.58 82.7749 351.528 83.701 351.326L83.7668 351.834C82.7984 352.041 81.9993 352.078 80.6266 352.088H80.1189V346.889H83.2309ZM90.4329 346.165C91.674 346.174 92.5578 346.917 92.5672 347.989C92.5578 349.07 91.674 349.803 90.4329 349.803C89.1918 349.803 88.2986 349.07 88.308 347.989C88.2986 346.917 89.1918 346.174 90.4329 346.165ZM90.4329 346.672C89.5397 346.672 88.8816 347.227 88.891 347.989C88.8816 348.75 89.5397 349.305 90.4329 349.305C91.3261 349.305 91.9936 348.75 91.9936 347.989C91.9936 347.227 91.3261 346.672 90.4329 346.672ZM94.9083 345.845V350.132H94.3159V345.845H94.9083ZM94.9083 350.555V352.473H90.1696V353.526H95.2279V354.015H89.5961V352.013H94.3253V351.044H89.5679V350.555H94.9083ZM103.229 345.845V354.147H102.646V345.845H103.229ZM97.5879 351.608C98.9512 351.608 100.22 351.552 101.772 351.298L101.828 351.806C100.258 352.05 98.9888 352.116 97.5879 352.116H96.9015V349.013H100.126V347.142H96.8921V346.635H100.719V349.512H97.5126V351.608H97.5879Z" fill="#767676"/>
<rect x="114.915" y="340.794" width="34.7882" height="18.2208" rx="7.46147" fill="white"/>
<rect x="114.915" y="340.794" width="34.7882" height="18.2208" rx="7.46147" stroke="#D2D2D2" stroke-width="0.481385"/>
<path d="M126.794 351.665V354.015H121.115V351.665H126.794ZM121.698 352.135V353.545H126.221V352.135H121.698ZM127.283 346.569V347.048H120.58V346.569H123.663V345.694H124.246V346.569H127.283ZM123.945 347.424C125.647 347.424 126.606 347.819 126.606 348.59C126.606 349.324 125.76 349.718 124.246 349.756V350.471H127.735V350.96H120.175V350.471H123.663V349.756C122.145 349.718 121.285 349.328 121.285 348.59C121.285 347.819 122.253 347.424 123.945 347.424ZM123.945 347.847C122.676 347.857 121.915 348.12 121.915 348.59C121.915 349.06 122.676 349.333 123.945 349.333C125.224 349.333 125.986 349.06 125.986 348.59C125.986 348.12 125.224 347.857 123.945 347.847ZM130.621 346.39C131.665 346.4 132.417 347.011 132.417 347.913C132.417 348.816 131.665 349.436 130.621 349.427C129.568 349.436 128.806 348.816 128.816 347.913C128.806 347.011 129.568 346.4 130.621 346.39ZM130.621 346.86C129.878 346.86 129.352 347.312 129.352 347.913C129.352 348.524 129.878 348.966 130.621 348.976C131.354 348.966 131.881 348.524 131.881 347.913C131.881 347.312 131.354 346.86 130.621 346.86ZM135.482 345.845V354.137H134.908V345.845H135.482ZM133.93 346.042V353.677H133.366V351.796H131.712V351.317H133.366V346.042H133.93ZM128.393 350.132C129.549 350.132 131.42 350.132 132.793 349.906L132.84 350.367C132.219 350.485 131.528 350.555 130.856 350.593V353.451H130.282V350.621C129.61 350.654 128.98 350.654 128.477 350.649L128.393 350.132ZM139.026 346.503C140.159 346.503 140.968 347.495 141.067 349.07H143.069V345.845H143.652V354.147H143.069V349.559H141.076C141.006 351.199 140.188 352.238 139.026 352.238C137.814 352.238 136.967 351.119 136.977 349.371C136.967 347.622 137.814 346.503 139.026 346.503ZM139.026 347.029C138.143 347.029 137.541 347.988 137.541 349.371C137.541 350.762 138.143 351.712 139.026 351.712C139.901 351.712 140.512 350.762 140.512 349.371C140.512 347.988 139.901 347.029 139.026 347.029Z" fill="#767676"/>
<rect x="155.319" y="340.794" width="26.7882" height="18.2208" rx="7.46147" fill="white"/>
<rect x="155.319" y="340.794" width="26.7882" height="18.2208" rx="7.46147" stroke="#D2D2D2" stroke-width="0.481385"/>
<path d="M163.485 347.424C163.485 348.581 164.463 349.596 165.666 349.991L165.356 350.461C164.387 350.127 163.565 349.413 163.203 348.487C162.85 349.483 162.027 350.259 161.04 350.63L160.721 350.16C161.924 349.728 162.883 348.647 162.892 347.424V346.954H160.88V346.456H165.478V346.954H163.485V347.424ZM167.396 345.845V350.865H166.804V345.845H167.396ZM167.396 351.326V354.137H166.804V351.825H161.858V351.326H167.396ZM171.627 347.443C171.627 348.571 172.52 349.549 173.705 349.954L173.413 350.414C172.464 350.09 171.702 349.408 171.354 348.534C171.002 349.521 170.188 350.283 169.201 350.649L168.9 350.17C170.104 349.756 171.044 348.694 171.053 347.453V346.973H169.098V346.475H173.554V346.973H171.627V347.443ZM175.36 345.845V348.026H176.638V348.524H175.36V350.875H174.767V345.845H175.36ZM172.718 351.119C174.41 351.119 175.425 351.665 175.425 352.605C175.425 353.564 174.41 354.109 172.718 354.109C171.025 354.109 169.991 353.564 170 352.605C169.991 351.665 171.025 351.119 172.718 351.119ZM172.718 351.608C171.411 351.608 170.574 351.994 170.583 352.605C170.574 353.244 171.411 353.63 172.718 353.63C174.025 353.63 174.852 353.244 174.852 352.605C174.852 351.994 174.025 351.608 172.718 351.608Z" fill="#767676"/>
<rect x="187.723" y="340.794" width="26.7882" height="18.2208" rx="7.46147" fill="white"/>
<rect x="187.723" y="340.794" width="26.7882" height="18.2208" rx="7.46147" stroke="#D2D2D2" stroke-width="0.481385"/>
<path d="M197.76 346.785V347.283H196.782V351.401C197.266 351.369 197.746 351.326 198.202 351.27L198.239 351.721C196.462 351.994 194.45 352.022 192.965 352.031L192.88 351.505L194.055 351.495V347.283H193.087V346.785H197.76ZM199.368 345.845V349.22H200.797V349.728H199.368V354.137H198.775V345.845H199.368ZM194.638 351.486C195.151 351.481 195.677 351.463 196.209 351.43V347.283H194.638V351.486ZM202.508 351.599C204.125 351.599 205.187 351.542 206.476 351.317L206.541 351.815C205.225 352.041 204.134 352.097 202.508 352.097H201.869V346.616H205.846V347.123H202.451V348.957H205.564V349.446H202.451V351.599H202.508ZM208.121 345.845V354.137H207.538V345.845H208.121Z" fill="#767676"/>
<rect x="220.127" y="340.794" width="26.7882" height="18.2208" rx="7.46147" fill="white"/>
<rect x="220.127" y="340.794" width="26.7882" height="18.2208" rx="7.46147" stroke="#D2D2D2" stroke-width="0.481385"/>
<path d="M232.966 350.113V350.621H229.534V352.398H228.933V350.621H225.379V350.113H232.966ZM232.12 353.423V353.94H226.385V351.533H226.968V353.423H232.12ZM229.158 346.07C230.926 346.07 232.064 346.7 232.064 347.725C232.064 348.741 230.926 349.361 229.158 349.361C227.4 349.361 226.253 348.741 226.263 347.725C226.253 346.7 227.4 346.07 229.158 346.07ZM229.158 346.569C227.804 346.569 226.883 347.02 226.883 347.725C226.883 348.412 227.804 348.863 229.158 348.863C230.522 348.863 231.443 348.412 231.443 347.725C231.443 347.02 230.522 346.569 229.158 346.569ZM241.268 350.001V350.489H233.709V350.001H237.197V348.947H234.677V346.24H240.319V346.719H235.26V348.449H240.375V348.947H237.771V350.001H241.268ZM237.489 351.157C239.256 351.157 240.328 351.693 240.328 352.633C240.328 353.592 239.256 354.119 237.489 354.128C235.702 354.119 234.63 353.592 234.63 352.633C234.63 351.693 235.702 351.157 237.489 351.157ZM237.489 351.627C236.097 351.636 235.232 352.013 235.232 352.633C235.232 353.263 236.097 353.639 237.489 353.639C238.861 353.639 239.736 353.263 239.736 352.633C239.736 352.013 238.861 351.636 237.489 351.627Z" fill="#767676"/>
<rect x="74.5102" y="364.631" width="34.7882" height="18.2208" rx="7.46147" fill="white"/>
<rect x="74.5102" y="364.631" width="34.7882" height="18.2208" rx="7.46147" stroke="#D2D2D2" stroke-width="0.481385"/>
<path d="M86.8413 369.682V377.974H86.2584V369.682H86.8413ZM85.1678 369.889V377.523H84.5942V373.396H82.6668V372.888H84.5942V369.889H85.1678ZM83.2309 370.725V371.224H80.6924V375.417C81.9993 375.417 82.7749 375.365 83.701 375.163L83.7668 375.671C82.7984 375.878 81.9993 375.915 80.6266 375.925H80.1189V370.725H83.2309ZM94.8989 369.682V377.984H94.3065V369.682H94.8989ZM90.5175 370.34C91.7398 370.34 92.6142 371.459 92.6142 373.207C92.6142 374.956 91.7398 376.075 90.5175 376.075C89.2859 376.075 88.4209 374.956 88.4209 373.207C88.4209 371.459 89.2859 370.34 90.5175 370.34ZM90.5175 370.866C89.6243 370.866 88.9944 371.825 88.9944 373.207C88.9944 374.599 89.6243 375.549 90.5175 375.549C91.4107 375.549 92.0312 374.599 92.0312 373.207C92.0312 371.825 91.4107 370.866 90.5175 370.866ZM103.116 374.223V374.721H97.4186V370.434H103.013V370.932H98.0204V372.286H102.844V372.775H98.0204V374.223H103.116ZM104.009 376.348V376.855H96.4126V376.348H104.009Z" fill="#767676"/>
<rect x="114.915" y="364.631" width="43.7882" height="18.2208" rx="7.46147" fill="white"/>
<rect x="114.915" y="364.631" width="43.7882" height="18.2208" rx="7.46147" stroke="#D2D2D2" stroke-width="0.481385"/>
<path d="M127.735 374.082V374.571H120.166V374.082H127.735ZM126.738 375.473V377.974H126.136V375.962H121.012V375.473H126.738ZM126.813 372.728V373.207H121.191V369.917H126.776V370.396H121.792V371.289H126.54V371.769H121.792V372.728H126.813ZM135.322 369.682V374.035H134.739V372.897H132.642V373.668H128.929V370.077H129.521V371.346H132.05V370.077H132.642V370.913H134.739V369.682H135.322ZM135.322 374.467V376.338H130.602V377.363H135.67V377.852H130.019V375.868H134.739V374.956H129.991V374.467H135.322ZM129.521 373.179H132.05V371.835H129.521V373.179ZM132.642 372.418H134.739V371.383H132.642V372.418ZM143.276 369.682V372.484H144.555V372.991H143.276V375.906H142.684V369.682H143.276ZM141.791 370.744V371.242H136.845V370.744H139.026V369.691H139.609V370.744H141.791ZM139.318 371.75C140.493 371.75 141.292 372.352 141.292 373.283C141.292 374.214 140.493 374.806 139.318 374.806C138.124 374.806 137.334 374.214 137.334 373.283C137.334 372.352 138.124 371.75 139.318 371.75ZM139.318 372.23C138.462 372.23 137.889 372.653 137.898 373.283C137.889 373.903 138.462 374.326 139.318 374.317C140.164 374.326 140.728 373.903 140.738 373.283C140.728 372.653 140.164 372.23 139.318 372.23ZM143.68 377.279V377.777H138.143V375.398H138.726V377.279H143.68ZM151.597 369.682V371.459H152.876V371.976H151.597V373.894H151.005V369.682H151.597ZM146.163 370.048V372.916H146.21C147.432 372.916 148.673 372.831 150.064 372.549L150.14 373.048C148.71 373.349 147.479 373.433 146.21 373.433H145.561V370.048H146.163ZM151.597 374.308V376.254H146.971V377.363H151.917V377.852H146.388V375.774H151.005V374.796H146.369V374.308H151.597Z" fill="#767676"/>
<rect x="164.319" y="364.631" width="34.7882" height="18.2208" rx="7.46147" fill="white"/>
<rect x="164.319" y="364.631" width="34.7882" height="18.2208" rx="7.46147" stroke="#D2D2D2" stroke-width="0.481385"/>
<path d="M176.415 369.682V374.731H175.823V373.518H173.5V373.01H175.823V371.778H173.604C173.049 373.128 171.728 374.119 169.956 374.655L169.702 374.176C171.733 373.56 173.096 372.366 173.237 370.829H170.125V370.321H173.876C173.876 370.664 173.834 370.989 173.754 371.299H175.823V369.682H176.415ZM173.716 374.806C175.399 374.806 176.462 375.389 176.462 376.367C176.462 377.354 175.399 377.937 173.716 377.937C172.024 377.937 170.962 377.354 170.962 376.367C170.962 375.389 172.024 374.806 173.716 374.806ZM173.716 375.295C172.4 375.295 171.545 375.699 171.545 376.367C171.545 377.034 172.4 377.448 173.716 377.448C175.014 377.448 175.87 377.034 175.87 376.367C175.87 375.699 175.014 375.295 173.716 375.295ZM185.497 376.367V376.874H177.9V376.367H181.398V374.289H181.99V376.367H185.497ZM181.99 371.318C181.99 372.69 183.824 373.837 185.112 374.054L184.858 374.533C183.673 374.284 182.216 373.443 181.699 372.248C181.163 373.452 179.715 374.303 178.549 374.561L178.295 374.082C179.565 373.856 181.379 372.69 181.379 371.318V370.989H178.53V370.471H184.848V370.989H181.99V371.318ZM188.92 372.023C188.91 373.471 189.991 374.975 191.12 375.539L190.753 376.019C189.841 375.53 189.009 374.505 188.638 373.311C188.271 374.575 187.42 375.671 186.503 376.179L186.118 375.708C187.265 375.116 188.327 373.527 188.337 372.023V370.424H188.92V372.023ZM192.605 369.682V373.095H194.034V373.621H192.605V377.974H192.013V369.682H192.605Z" fill="#767676"/>
<rect x="204.723" y="364.631" width="26.7882" height="18.2208" rx="7.46147" fill="white"/>
<rect x="204.723" y="364.631" width="26.7882" height="18.2208" rx="7.46147" stroke="#D2D2D2" stroke-width="0.481385"/>
<path d="M214.958 370.613V371.111H210.012V370.613H212.193V369.644H212.776V370.613H214.958ZM212.485 371.6C213.669 371.6 214.459 372.173 214.459 373.085C214.459 373.988 213.669 374.561 212.485 374.561C211.291 374.561 210.501 373.988 210.501 373.085C210.501 372.173 211.291 371.6 212.485 371.6ZM212.485 372.07C211.629 372.07 211.056 372.484 211.065 373.085C211.056 373.687 211.629 374.082 212.485 374.082C213.331 374.082 213.895 373.687 213.905 373.085C213.895 372.484 213.331 372.07 212.485 372.07ZM216.443 369.682V372.023H217.722V372.531H216.443V374.853H215.851V369.682H216.443ZM216.443 375.351V377.974H215.851V375.84H211.056V375.351H216.443ZM224.896 370.556V371.515C224.896 372.596 224.896 373.64 224.604 375.144L224.021 375.069C224.313 373.64 224.313 372.568 224.322 371.515V371.054H219.113V370.556H224.896ZM225.864 376.235V376.743H218.305V376.235H220.26V373.461H220.853V376.235H222.338V373.461H222.921V376.235H225.864Z" fill="#767676"/>
<rect x="237.127" y="364.631" width="26.7882" height="18.2208" rx="7.46147" fill="white"/>
<rect x="237.127" y="364.631" width="26.7882" height="18.2208" rx="7.46147" stroke="#D2D2D2" stroke-width="0.481385"/>
<path d="M244.598 370.34C245.364 370.34 245.984 370.796 246.337 371.581H248.641V369.682H249.223V377.984H248.641V374.731H246.384C246.036 375.577 245.402 376.075 244.598 376.075C243.385 376.075 242.539 374.956 242.548 373.207C242.539 371.459 243.385 370.34 244.598 370.34ZM244.598 370.866C243.714 370.866 243.112 371.825 243.112 373.207C243.112 374.599 243.714 375.549 244.598 375.549C245.472 375.549 246.083 374.599 246.083 373.207C246.083 371.825 245.472 370.866 244.598 370.866ZM246.516 372.089C246.596 372.422 246.647 372.798 246.647 373.207C246.647 373.574 246.605 373.917 246.534 374.223H248.641V372.089H246.516ZM257.723 369.682V374.947H257.159V372.502H255.899V374.646H255.344V369.842H255.899V372.013H257.159V369.682H257.723ZM254.978 370.716V371.214H250.662V370.716H252.533V369.738H253.125V370.716H254.978ZM252.824 371.694C253.877 371.703 254.592 372.248 254.601 373.113C254.592 373.969 253.877 374.514 252.824 374.514C251.771 374.514 251.047 373.969 251.057 373.113C251.047 372.248 251.771 371.703 252.824 371.694ZM252.824 372.154C252.091 372.154 251.583 372.549 251.583 373.113C251.583 373.668 252.091 374.054 252.824 374.054C253.558 374.054 254.056 373.668 254.056 373.113C254.056 372.549 253.558 372.154 252.824 372.154ZM255.015 375.107C256.736 375.107 257.77 375.624 257.77 376.536C257.77 377.438 256.736 377.946 255.015 377.946C253.276 377.946 252.251 377.438 252.251 376.536C252.251 375.624 253.276 375.107 255.015 375.107ZM255.015 375.586C253.671 375.577 252.834 375.934 252.843 376.536C252.834 377.119 253.671 377.476 255.015 377.476C256.35 377.476 257.178 377.119 257.187 376.536C257.178 375.934 256.35 375.577 255.015 375.586Z" fill="#767676"/>
<rect x="74.5102" y="388.467" width="26.7882" height="18.2208" rx="7.46147" fill="white"/>
<rect x="74.5102" y="388.467" width="26.7882" height="18.2208" rx="7.46147" stroke="#D2D2D2" stroke-width="0.481385"/>
<path d="M86.5875 393.519V401.811H86.0045V393.519H86.5875ZM84.1429 394.431C84.1335 396.772 82.9583 398.887 80.2317 400.203L79.9026 399.715C82.1779 398.638 83.3955 396.941 83.5506 394.92H80.2693V394.431H84.1429ZM89.1072 399.273C90.6868 399.273 91.7492 399.216 93.0185 398.991L93.0937 399.489C91.7868 399.715 90.715 399.771 89.1072 399.771H88.4679V394.29H92.3509V394.797H89.0602V396.631H92.1347V397.12H89.0602V399.273H89.1072ZM94.4758 393.519V396.913H95.9049V397.42H94.4758V401.811H93.8835V393.519H94.4758Z" fill="#767676"/>
</g>
</g>
<g clip-path="url(#clip5_788_3440)">
<path d="M76.9481 441.47C78.5068 441.47 79.6584 442.768 79.8619 444.867H82.0505V440.63H83.4501V452.145H82.0505V446.012H79.8747C79.722 448.233 78.5514 449.6 76.9481 449.6C75.2177 449.6 73.9962 448.035 73.9962 445.529C73.9962 443.047 75.2177 441.47 76.9481 441.47ZM76.9481 442.742C75.9938 442.742 75.3449 443.773 75.3576 445.529C75.3449 447.297 75.9938 448.328 76.9481 448.328C77.9024 448.328 78.5386 447.297 78.5514 445.529C78.5386 443.773 77.9024 442.742 76.9481 442.742ZM95.1054 450.758V451.903H86.9111V448.264H88.3234V450.758H95.1054ZM94.8 440.643V448.964H93.4131V444.867H91.6444V443.722H93.4131V440.643H94.8ZM88.2725 441.533V442.678H86.682V446.127C87.2292 446.101 87.7636 446.044 88.3616 445.91L88.4761 447.056C87.5218 447.272 86.7584 447.272 85.8295 447.272H85.2951V441.533H88.2725ZM92.077 441.533V442.678H90.2575V446.127C91.1418 446.114 91.7271 446.057 92.3951 445.898L92.5351 447.043C91.619 447.246 90.8937 447.272 89.4686 447.272H88.8578V441.533H92.077ZM109.903 446.178V447.31H99.4188V446.178H103.949V445.236C101.83 445.096 100.5 444.301 100.5 443.06C100.5 441.661 102.129 440.846 104.648 440.846C107.193 440.846 108.784 441.661 108.796 443.06C108.784 444.307 107.479 445.102 105.335 445.236V446.178H109.903ZM105.361 448.201C105.361 449.537 106.773 450.682 109.153 450.987L108.606 452.069C106.767 451.808 105.355 451.045 104.661 449.931C103.942 451.045 102.523 451.808 100.691 452.069L100.157 450.987C102.523 450.682 103.923 449.537 103.936 448.201V447.921H105.361V448.201ZM104.648 441.928C102.969 441.928 101.964 442.322 101.976 443.06C101.964 443.785 102.969 444.154 104.648 444.154C106.328 444.154 107.333 443.785 107.333 443.06C107.333 442.322 106.328 441.928 104.648 441.928ZM120.261 440.643V448.951H118.836V440.643H120.261ZM120.579 450.758V451.903H112.652V448.112H114.077V450.758H120.579ZM113.988 441.393C115.731 441.393 117.08 442.602 117.08 444.269C117.08 445.974 115.731 447.157 113.988 447.157C112.232 447.157 110.883 445.974 110.883 444.269C110.883 442.602 112.232 441.393 113.988 441.393ZM113.988 442.628C113.008 442.628 112.257 443.277 112.27 444.269C112.257 445.287 113.008 445.923 113.988 445.923C114.942 445.923 115.693 445.287 115.693 444.269C115.693 443.277 114.942 442.628 113.988 442.628ZM130.949 440.63V445.121H132.654V446.305H130.949V452.107H129.537V440.63H130.949ZM127.908 441.826C127.908 445.211 126.508 448.175 122.678 450.058L121.877 448.964C124.676 447.571 126.19 445.611 126.483 442.997H122.5V441.826H127.908ZM143.711 449.575V450.733H133.201V449.575H135.631V446.661C134.715 446.139 134.162 445.319 134.168 444.294C134.155 442.462 135.962 441.253 138.431 441.253C140.912 441.253 142.719 442.462 142.719 444.294C142.719 445.3 142.184 446.108 141.294 446.636V449.575H143.711ZM138.431 442.373C136.713 442.373 135.542 443.098 135.555 444.294C135.542 445.478 136.713 446.216 138.431 446.216C140.148 446.216 141.332 445.478 141.332 444.294C141.332 443.098 140.148 442.373 138.431 442.373ZM137.031 449.575H139.856V447.17C139.417 447.272 138.94 447.323 138.431 447.323C137.934 447.323 137.464 447.272 137.031 447.183V449.575ZM146.409 448.175C146.421 446.559 146.879 446.063 147.681 445.567C148.228 445.223 148.635 444.791 148.635 444.154C148.635 443.442 148.088 442.984 147.388 442.984C146.752 442.984 146.141 443.391 146.103 444.244H144.513C144.551 442.539 145.836 441.661 147.401 441.661C149.119 441.661 150.302 442.615 150.302 444.129C150.302 445.16 149.781 445.834 148.954 446.33C148.216 446.776 147.91 447.221 147.897 448.175V448.29H146.409V448.175ZM147.198 451.102C146.65 451.102 146.205 450.656 146.205 450.109C146.205 449.575 146.65 449.13 147.198 449.13C147.719 449.13 148.177 449.575 148.177 450.109C148.177 450.656 147.719 451.102 147.198 451.102Z" fill="black"/>
<mask id="path-46-inside-3_788_3440" fill="white">
<path d="M73.4236 459H287.106V493.15H73.4236V459Z"/>
</mask>
<path d="M287.106 492.824H73.4236V493.476H287.106V492.824Z" fill="#C4C0BC" mask="url(#path-46-inside-3_788_3440)"/>
<g clip-path="url(#clip6_788_3440)">
<path d="M78.1951 466.935C78.1951 469.54 77.4794 471.773 74.3015 473.358L73.7194 472.556C75.2129 471.816 76.1004 470.957 76.6014 469.932L73.9198 470.189L73.7862 469.273L76.9259 469.073C77.0356 468.672 77.1024 468.247 77.1358 467.794H74.2347V466.935H78.1951ZM80.4663 466.086V469.464H81.7451V470.332H80.4663V474.694H79.4071V466.086H80.4663ZM85.6673 467.078V467.918H83.4533V469.397H85.3047V470.218H83.4533V471.888C84.4792 471.878 85.1854 471.831 86.0299 471.687L86.1254 472.537C85.1329 472.728 84.3122 472.747 83.0048 472.747H82.4417V467.078H85.6673ZM89.599 466.086V474.713H88.5684V466.086H89.599ZM87.7858 466.257V474.293H86.7934V470.132H85.7246V469.273H86.7934V466.257H87.7858ZM97.6438 466.878V467.708C97.6343 468.777 97.6343 469.979 97.3002 471.783L96.2314 471.668C96.5654 469.989 96.5654 468.763 96.575 467.727H91.4217V466.878H97.6438ZM98.4645 472.728V473.596H90.601V472.728H93.5021V469.731H94.5519V472.728H98.4645ZM106.233 466.086V474.722H105.183V466.086H106.233ZM103.58 466.84V470.075H100.612V471.812C101.972 471.802 103.145 471.735 104.486 471.506L104.582 472.375C103.112 472.632 101.824 472.68 100.278 472.68H99.5238V469.235H102.501V467.698H99.5142V466.84H103.58Z" fill="#111111"/>
<path d="M229.662 467.469C229.662 468.977 231.495 470.256 232.821 470.504L232.525 471.019C231.337 470.724 229.892 469.803 229.357 468.51C228.823 469.803 227.377 470.724 226.189 471.019L225.903 470.504C227.229 470.246 229.033 468.987 229.042 467.469V466.801H229.662V467.469ZM233.251 472.919V473.424H225.54V472.919H233.251ZM238.251 467.088C238.251 469.464 237.326 471.707 234.367 473.176L234.024 472.709C235.632 471.912 236.629 470.876 237.163 469.683L234.167 469.96L234.033 469.426L237.354 469.197C237.526 468.691 237.621 468.152 237.66 467.594H234.463V467.088H238.251ZM240.914 466.191V474.608H240.322V470.132H238.223V469.617H240.322V466.191H240.914ZM249.235 470.8V471.306H243.452V466.954H249.13V467.46H244.063V468.834H248.959V469.33H244.063V470.8H249.235ZM250.142 472.957V473.472H242.431V472.957H250.142ZM257.977 470.724L253.797 472.985V472.279L257.146 470.504V470.466L253.797 468.691V467.985L257.977 470.256V470.724ZM269.323 470.705V471.21H261.622V470.705H265.172V469.836H262.634V467.899H267.72V466.945H262.605V466.448H268.321V468.366H263.225V469.34H268.503V469.836H265.764V470.705H269.323ZM265.468 471.859C267.31 471.859 268.379 472.327 268.388 473.224C268.379 474.102 267.31 474.579 265.468 474.579C263.607 474.579 262.538 474.102 262.548 473.224C262.538 472.327 263.607 471.859 265.468 471.859ZM265.468 472.327C264.027 472.336 263.149 472.661 263.159 473.224C263.149 473.787 264.027 474.121 265.468 474.111C266.899 474.121 267.768 473.787 267.768 473.224C267.768 472.661 266.899 472.336 265.468 472.327Z" fill="#9747FF"/>
<path d="M284.907 468.894L281.243 472.559L277.578 468.894" stroke="#C4C0BC" stroke-width="0.977206" stroke-linecap="round" stroke-linejoin="round"/>
</g>
<mask id="path-51-inside-4_788_3440" fill="white">
<path d="M73.4236 493.15H287.106V527.3H73.4236V493.15Z"/>
</mask>
<path d="M287.106 526.974H73.4236V527.626H287.106V526.974Z" fill="#C4C0BC" mask="url(#path-51-inside-4_788_3440)"/>
<g clip-path="url(#clip7_788_3440)">
<path d="M76.401 501.801C76.401 502.765 76.9354 503.719 78.071 504.167L77.4985 504.979C76.7398 504.673 76.2101 504.11 75.9048 503.414C75.5803 504.196 75.0173 504.855 74.1966 505.208L73.6335 504.387C74.8169 503.862 75.3704 502.774 75.3799 501.801V500.751H76.401V501.801ZM81.0866 500.245V505.465H80.0751V503.27H79.2162V505.418H78.2237V500.388H79.2162V502.392H80.0751V500.245H81.0866ZM81.0866 505.876V508.863H80.0274V506.725H75.1795V505.876H81.0866ZM85.2092 501.61C85.2092 502.698 85.9154 503.719 87.2419 504.139L86.6693 504.969C85.7389 504.654 85.0709 504.024 84.7034 503.223C84.3217 504.139 83.6251 504.859 82.6326 505.208L82.06 504.377C83.4533 503.891 84.1404 502.746 84.15 501.515V500.694H85.2092V501.61ZM88.9596 500.236V502.335H90.1621V503.213H88.9596V505.399H87.9004V500.236H88.9596ZM86.154 505.589C87.9385 505.58 89.036 506.191 89.0455 507.212C89.036 508.252 87.9385 508.853 86.154 508.853C84.3504 508.853 83.2338 508.252 83.2338 507.212C83.2338 506.191 84.3504 505.58 86.154 505.589ZM86.154 506.42C84.9707 506.42 84.2931 506.706 84.2931 507.212C84.2931 507.746 84.9707 508.013 86.154 508.013C87.3373 508.013 87.9958 507.746 87.9958 507.212C87.9958 506.706 87.3373 506.42 86.154 506.42Z" fill="#111111"/>
<path d="M257.882 500.904C257.872 502.984 256.326 504.492 253.912 505.189L253.654 504.711C255.72 504.115 257.09 502.941 257.243 501.41H254.074V500.904H257.882ZM260.478 500.341V505.179H259.876V503.08H257.892V502.574H259.876V500.341H260.478ZM260.478 505.542V508.634H255.048V505.542H260.478ZM255.639 506.028V508.128H259.886V506.028H255.639ZM268.923 500.341V505.36H268.322V503.089H266.499V502.583H268.322V500.341H268.923ZM266.156 505.647C267.893 505.647 268.952 506.21 268.952 507.193C268.952 508.176 267.893 508.739 266.156 508.748C264.419 508.739 263.36 508.176 263.369 507.193C263.36 506.21 264.419 505.647 266.156 505.647ZM266.156 506.124C264.81 506.124 263.951 506.534 263.961 507.193C263.951 507.851 264.81 508.252 266.156 508.252C267.501 508.252 268.36 507.851 268.36 507.193C268.36 506.534 267.501 506.124 266.156 506.124ZM264.829 501.925C264.829 503.06 265.755 504.11 266.948 504.521L266.633 505.007C265.683 504.654 264.906 503.924 264.553 503.022C264.19 504.048 263.36 504.864 262.358 505.255L262.043 504.769C263.255 504.32 264.228 503.185 264.228 501.934V501.495H262.253V500.99H266.776V501.495H264.829V501.925Z" fill="#9747FF"/>
<path d="M284.907 503.044L281.243 506.709L277.578 503.044" stroke="#C4C0BC" stroke-width="0.977206" stroke-linecap="round" stroke-linejoin="round"/>
</g>
</g>
<defs>
<clipPath id="clip0_788_3440">
<rect width="231.065" height="196.263" fill="white" transform="translate(64 226.07)"/>
</clipPath>
<clipPath id="clip1_788_3440">
<rect width="210.526" height="22.5532" fill="white" transform="translate(74.2695 251.07)"/>
</clipPath>
<clipPath id="clip2_788_3440">
<rect width="210.526" height="28.9717" fill="white" transform="translate(74.2695 273.624)"/>
</clipPath>
<clipPath id="clip3_788_3440">
<rect width="210.526" height="22.5532" fill="white" transform="translate(74.2695 312.865)"/>
</clipPath>
<clipPath id="clip4_788_3440">
<rect width="210.526" height="76.6456" fill="white" transform="translate(74.2695 335.418)"/>
</clipPath>
<clipPath id="clip5_788_3440">
<rect width="234.53" height="93.3" fill="white" transform="translate(63 434)"/>
</clipPath>
<clipPath id="clip6_788_3440">
<rect width="213.682" height="23.7265" fill="white" transform="translate(73.4236 459)"/>
</clipPath>
<clipPath id="clip7_788_3440">
<rect width="213.682" height="23.7265" fill="white" transform="translate(73.4236 493.15)"/>
</clipPath>
</defs>
</svg>
