<svg width="370" height="370" viewBox="0 0 370 370" fill="none" xmlns="http://www.w3.org/2000/svg">
<path d="M368.464 208.499C368.464 296.779 290.971 335.235 186.335 335.235C81.6997 335.235 1 296.779 1 208.499C1 120.22 81.6997 34 186.335 34C290.971 34 368.464 120.22 368.464 208.499Z" fill="#F26444"/>
<ellipse cx="130.412" cy="179.881" rx="22.3551" ry="23.1934" fill="#352B29"/>
<ellipse cx="130.133" cy="171.499" rx="6.42709" ry="5.30934" fill="white"/>
<ellipse cx="245.054" cy="179.322" rx="22.3551" ry="23.1934" fill="#352B29"/>
<ellipse cx="244.215" cy="170.939" rx="6.42709" ry="5.30934" fill="white"/>
<ellipse cx="130.412" cy="179.881" rx="22.3551" ry="23.1934" fill="#352B29"/>
<ellipse cx="130.133" cy="171.499" rx="6.42709" ry="5.30934" fill="white"/>
<ellipse cx="245.054" cy="179.322" rx="22.3551" ry="23.1934" fill="#352B29"/>
<ellipse cx="244.215" cy="170.939" rx="6.42709" ry="5.30934" fill="white"/>
<path d="M153.391 212.545C155.264 209.483 159.265 208.518 162.327 210.391L199.671 233.228C195.925 239.353 187.923 241.282 181.798 237.536L155.545 221.482C152.483 219.609 151.518 215.608 153.391 212.545Z" fill="#352B29"/>
<path d="M226.809 211.609C224.936 208.546 220.935 207.582 217.873 209.455L178.493 233.537C182.239 239.662 190.241 241.591 196.366 237.845L224.655 220.545C227.718 218.672 228.682 214.671 226.809 211.609Z" fill="#352B29"/>
</svg>
