<svg width="15" height="13" viewBox="0 0 15 13" fill="none" xmlns="http://www.w3.org/2000/svg">
<path d="M15 7.12311C15 10.7267 11.8367 12.2965 7.56545 12.2965C3.29419 12.2965 0 10.7267 0 7.12311C0 3.51951 3.29419 0 7.56545 0C11.8367 0 15 3.51951 15 7.12311Z" fill="#F26444"/>
<ellipse cx="5.28266" cy="5.66918" rx="0.912543" ry="0.946763" fill="black"/>
<ellipse cx="5.27127" cy="5.32696" rx="0.262356" ry="0.216729" fill="white"/>
<ellipse cx="9.96247" cy="5.64635" rx="0.912543" ry="0.946763" fill="black"/>
<ellipse cx="9.92837" cy="5.30413" rx="0.262356" ry="0.216729" fill="white"/>
<path fill-rule="evenodd" clip-rule="evenodd" d="M9.44143 7.11484C9.54607 7.05728 9.67503 7.10068 9.72946 7.21179C9.78389 7.32289 9.74319 7.45963 9.63854 7.51719L7.76365 8.5485C7.659 8.60607 7.53004 8.56266 7.47561 8.45155C7.42118 8.34045 7.46189 8.20372 7.56654 8.14615L9.44143 7.11484Z" fill="black"/>
<path fill-rule="evenodd" clip-rule="evenodd" d="M6.07978 7.13646C5.97504 7.07881 5.84598 7.12225 5.79153 7.23349C5.73707 7.34473 5.77783 7.48165 5.88257 7.5393L7.71566 8.54833C7.8204 8.60598 7.94946 8.56254 8.00392 8.4513C8.05838 8.34006 8.01762 8.20314 7.91288 8.14549L6.07978 7.13646Z" fill="black"/>
</svg>
