<svg width="295" height="125" viewBox="0 0 295 125" fill="none" xmlns="http://www.w3.org/2000/svg">
<rect x="1.5" y="1.5" width="292" height="122" rx="28.5" stroke="#F26444" stroke-width="3" stroke-dasharray="10 10"/>
<path d="M81.8631 71.7461C84.4471 71.7598 86.3064 73.0176 86.3064 74.9316C86.3064 76.7432 84.6932 77.9463 82.3826 78.0898V80.6465H87.4549V81.5488H76.326V80.6465H81.3299V78.0898C79.0262 77.9395 77.4197 76.7363 77.4197 74.9316C77.4197 73.0176 79.2791 71.7598 81.8631 71.7461ZM81.8631 72.6348C79.8943 72.6348 78.4588 73.5645 78.4588 74.9316C78.4588 76.3398 79.8943 77.2422 81.8631 77.2559C83.8318 77.2422 85.2674 76.3398 85.2674 74.9316C85.2674 73.5645 83.8318 72.6348 81.8631 72.6348ZM97.8783 73.8789V74.7676H89.5795V71.1582H90.6322V73.8789H97.8783ZM99.1908 75.9707V76.8457H88.0619V75.9707H99.1908ZM97.7553 77.9395V80.7832H90.5639V82.082H98.1928V82.9434H89.4838V79.9629H96.7025V78.7871H89.4564V77.9395H97.7553ZM113.038 70.9531V83.1074H111.958V70.9531H113.038ZM109.442 72.2793C109.428 75.7793 107.801 78.8691 103.727 80.8242L103.139 79.9492C106.427 78.3906 108.102 76.0596 108.348 73.1543H103.7V72.2793H109.442ZM125.854 77.6523V78.541H114.725V77.6523H119.756V76.3672H116.174V73.4004H123.338V72.1426H116.133V71.2676H124.418V74.207H117.24V75.5059H124.678V76.3672H120.809V77.6523H125.854ZM124.487 79.4707V82.998H123.406V80.3457H115.969V79.4707H124.487ZM133.556 74.9453V75.8203H131.096V77.5156C132.23 77.4678 133.365 77.3857 134.418 77.2695L134.5 78.0625C131.888 78.418 128.99 78.5 126.707 78.5L126.543 77.625C127.609 77.6182 128.805 77.6045 130.029 77.5566V75.8203H127.65V71.7461H133.461V72.6348H128.73V74.9453H133.556ZM136.51 70.9668V80.0586H135.429V70.9668H136.51ZM136.906 81.9453V82.8477H128.621V79.4297H129.687V81.9453H136.906ZM150.903 70.9531V73.9336H152.735V74.8223H150.903V77.8574H149.837V70.9531H150.903ZM147.581 71.7461C147.567 74.8086 145.421 76.9961 141.825 77.9805L141.388 77.1191C144.382 76.3125 146.207 74.6924 146.433 72.6348H141.935V71.7461H147.581ZM150.903 78.418V82.9434H143.206V78.418H150.903ZM144.272 79.3066V82.0684H149.837V79.3066H144.272ZM162.653 70.9531V74.043H164.485V74.959H162.653V78.0898H161.587V70.9531H162.653ZM159.317 71.7324C159.317 74.8086 157.171 76.9961 153.575 77.9531L153.137 77.1191C156.118 76.3125 157.957 74.6855 158.182 72.6211H153.684V71.7324H159.317ZM162.653 78.6504V83.1074H161.587V79.5254H154.696V78.6504H162.653ZM174.922 70.9531V83.1348H173.842V70.9531H174.922ZM168.455 71.8965C170.26 71.9102 171.559 73.5508 171.559 76.1348C171.559 78.7188 170.26 80.3594 168.455 80.3594C166.637 80.3594 165.352 78.7188 165.352 76.1348C165.352 73.5508 166.637 71.9102 168.455 71.8965ZM168.455 72.8535C167.238 72.8672 166.391 74.1523 166.391 76.1348C166.391 78.1172 167.238 79.4023 168.455 79.4023C169.672 79.4023 170.52 78.1172 170.52 76.1348C170.52 74.1523 169.672 72.8672 168.455 72.8535ZM182.234 78.0898V79.6074H184.449V78.0898H185.447V82.9434H181.222V78.0898H182.234ZM182.234 82.0957H184.449V80.4277H182.234V82.0957ZM188.919 79.0469C188.906 80.332 189.671 81.6719 191.162 82.2188L190.601 83.0391C189.48 82.5879 188.742 81.7334 188.372 80.7148C187.983 81.7129 187.245 82.5742 186.171 83.0391L185.611 82.2188C187.074 81.6172 187.853 80.2773 187.853 79.0469V78.0078H188.919V79.0469ZM183.163 71.5C184.79 71.5 186.035 72.4229 186.267 73.8242H188.81V70.9531H189.89V77.3926H188.81V74.7129H186.281C186.062 76.1484 184.811 77.0918 183.163 77.0918C181.318 77.0918 180.005 75.957 180.005 74.2891C180.005 72.6348 181.318 71.5 183.163 71.5ZM183.163 72.4023C181.919 72.4023 181.031 73.1816 181.031 74.2891C181.031 75.4102 181.919 76.2031 183.163 76.2031C184.394 76.2031 185.269 75.4102 185.269 74.2891C185.269 73.1816 184.394 72.4023 183.163 72.4023ZM194.831 71.8965C196.485 71.9102 197.675 73.3252 197.853 75.6016H200.573V70.9531H201.64V83.1348H200.573V76.4902H197.866C197.736 78.8691 196.526 80.3594 194.831 80.3594C193.04 80.3594 191.782 78.7188 191.782 76.1348C191.782 73.5508 193.04 71.9102 194.831 71.8965ZM194.831 72.8535C193.628 72.8672 192.808 74.1523 192.808 76.1348C192.808 78.1172 193.628 79.4023 194.831 79.4023C196.021 79.4023 196.854 78.1172 196.854 76.1348C196.854 74.1523 196.021 72.8672 194.831 72.8535ZM214.442 80.6465V81.5488H203.313V80.6465H206.075V77.3652C205.036 76.8252 204.407 75.9502 204.407 74.8496C204.407 72.9629 206.253 71.7324 208.85 71.7188C211.448 71.7324 213.294 72.9629 213.294 74.8496C213.294 75.9297 212.685 76.7979 211.68 77.3379V80.6465H214.442ZM208.85 72.6074C206.854 72.5938 205.446 73.4961 205.446 74.8496C205.446 76.2031 206.854 77.1191 208.85 77.1191C210.833 77.1191 212.254 76.2031 212.254 74.8496C212.254 73.4961 210.833 72.5938 208.85 72.6074ZM207.128 80.6465H210.6V77.748C210.074 77.8916 209.486 77.9668 208.85 77.9668C208.228 77.9668 207.647 77.8984 207.128 77.7617V80.6465ZM217.031 72.1016L216.936 79.2109H215.787L215.692 72.1016H217.031ZM216.362 82.082C215.883 82.082 215.473 81.6855 215.487 81.1934C215.473 80.7148 215.883 80.3184 216.362 80.3184C216.84 80.3184 217.237 80.7148 217.237 81.1934C217.237 81.6855 216.84 82.082 216.362 82.082ZM99.1826 87.9531V90.9336H101.015V91.8223H99.1826V94.8574H98.1162V87.9531H99.1826ZM95.8604 88.7461C95.8467 91.8086 93.7002 93.9961 90.1045 94.9805L89.667 94.1191C92.6611 93.3125 94.4863 91.6924 94.7119 89.6348H90.2139V88.7461H95.8604ZM99.1826 95.418V99.9434H91.4854V95.418H99.1826ZM92.5518 96.3066V99.0684H98.1162V96.3066H92.5518ZM110.932 87.9531V91.043H112.764V91.959H110.932V95.0898H109.866V87.9531H110.932ZM107.596 88.7324C107.596 91.8086 105.45 93.9961 101.854 94.9531L101.417 94.1191C104.397 93.3125 106.236 91.6855 106.462 89.6211H101.963V88.7324H107.596ZM110.932 95.6504V100.107H109.866V96.5254H102.975V95.6504H110.932ZM118.717 88.1719C121.424 88.1719 123.01 88.9102 123.01 90.2637C123.01 91.6445 121.424 92.3828 118.717 92.3965C116.01 92.3828 114.41 91.6445 114.41 90.2637C114.41 88.9102 116.01 88.1719 118.717 88.1719ZM118.717 88.9785C116.694 88.9785 115.518 89.4707 115.531 90.2637C115.518 91.1113 116.694 91.5762 118.717 91.5762C120.727 91.5762 121.916 91.1113 121.916 90.2637C121.916 89.4707 120.727 88.9785 118.717 88.9785ZM124.254 93.2168V94.0918H113.18V93.2168H124.254ZM122.832 95.1445V97.8652H115.613V99.123H123.201V99.9707H114.547V97.0723H121.779V95.9648H114.52V95.1445H122.832ZM139.167 95.3086V96.2109H134.15V100.135H133.097V96.2109H128.093V95.3086H139.167ZM134.163 90.3594C134.163 91.877 136.283 93.2031 138.456 93.5039L138.06 94.3652C136.18 94.0781 134.41 93.1348 133.644 91.8086C132.865 93.1484 131.067 94.0781 129.187 94.3652L128.79 93.5039C130.951 93.2031 133.097 91.8906 133.097 90.3594V90.3457H129.173V89.4707H133.097V87.9531H134.15V89.4707H138.101V90.3457H134.163V90.3594ZM149.249 87.9531V92.9023H151.218V93.8047H149.249V100.107H148.183V87.9531H149.249ZM146.104 89.2656C146.104 92.7109 144.491 95.8418 140.526 97.7969L139.925 96.9492C143.069 95.3838 144.778 93.0459 145.024 90.168H140.485V89.2656H146.104ZM157.663 90.0586V90.9336H151.565V90.0586H154.094V88.3223H155.161V90.0586H157.663ZM154.614 91.7539C156.145 91.7539 157.239 92.9023 157.253 94.5156C157.239 96.1426 156.145 97.3047 154.614 97.3047C153.096 97.3047 152.003 96.1426 152.003 94.5156C152.003 92.9023 153.096 91.7539 154.614 91.7539ZM154.614 92.6562C153.657 92.6699 152.96 93.4492 152.96 94.5156C152.96 95.5957 153.657 96.375 154.614 96.3613C155.585 96.375 156.296 95.5957 156.296 94.5156C156.296 93.4492 155.585 92.6699 154.614 92.6562ZM161.942 87.9531V100.107H160.917V93.9688H159.303V99.5059H158.292V88.2539H159.303V93.0801H160.917V87.9531H161.942ZM165.885 88.1582V89.3203H171.901V88.1582H172.967V92.1504H169.385V93.3535H174.416V94.2285H163.342V93.3535H168.332V92.1504H164.819V88.1582H165.885ZM165.885 91.3164H171.901V90.1406H165.885V91.3164ZM172.994 95.2402V97.9336H165.776V99.123H173.363V99.9707H164.709V97.1406H171.942V96.0605H164.682V95.2402H172.994ZM184.717 87.9531V92.9707H186.562V93.873H184.717V100.107H183.637V87.9531H184.717ZM178.783 89.2793C178.769 92.1777 178.113 95.0215 175.912 97.3594L175.051 96.7441C176.889 94.8643 177.628 92.6016 177.771 90.1816H175.433V89.2793H178.783ZM182.119 89.2793C182.105 92.1641 181.681 95.5137 179.412 98.166L178.537 97.5645C180.437 95.418 181.012 92.7178 181.107 90.1816H179.166V89.2793H182.119ZM197.97 97.6465V98.5488H186.841V97.6465H189.603V94.3652C188.564 93.8252 187.935 92.9502 187.935 91.8496C187.935 89.9629 189.781 88.7324 192.378 88.7188C194.976 88.7324 196.822 89.9629 196.822 91.8496C196.822 92.9297 196.213 93.7979 195.208 94.3379V97.6465H197.97ZM192.378 89.6074C190.382 89.5938 188.974 90.4961 188.974 91.8496C188.974 93.2031 190.382 94.1191 192.378 94.1191C194.361 94.1191 195.783 93.2031 195.783 91.8496C195.783 90.4961 194.361 89.5938 192.378 89.6074ZM190.656 97.6465H194.128V94.748C193.602 94.8916 193.014 94.9668 192.378 94.9668C191.756 94.9668 191.175 94.8984 190.656 94.7617V97.6465ZM200.532 96.1426C200.546 94.3105 201.106 93.75 202.05 93.1758C202.61 92.834 203.048 92.2871 203.048 91.5215C203.048 90.5918 202.323 90.0039 201.421 90.0039C200.642 90.0039 199.862 90.4688 199.78 91.5898H198.536C198.604 89.9355 199.862 88.9648 201.421 88.9648C203.13 88.9648 204.251 90.0723 204.251 91.5762C204.251 92.6426 203.745 93.3945 202.897 93.9141C202.05 94.4336 201.735 94.9531 201.708 96.1426V96.2109H200.532V96.1426ZM201.161 99.082C200.683 99.082 200.272 98.6855 200.286 98.1934C200.272 97.7148 200.683 97.3184 201.161 97.3184C201.64 97.3184 202.036 97.7148 202.036 98.1934C202.036 98.6855 201.64 99.082 201.161 99.082Z" fill="#F26444"/>
<path d="M146.423 51.2773V44.457H139.638V41.6094H146.423V34.8242H149.271V41.6094H156.091V44.457H149.271V51.2773H146.423Z" fill="#F26444"/>
<circle cx="147.865" cy="43.0541" r="19.9459" fill="#F26444" fill-opacity="0.53"/>
</svg>
